Jost-Hairline.ufo
<glyph name="quotedbl" format="2">
  <advance width="403"/>
  <unicode hex="0022"/>
  <outline>
    <contour>
      <point x="140" y="700" type="line"/>
      <point x="153" y="700" type="line"/>
      <point x="97" y="420" type="line"/>
      <point x="90" y="420" type="line"/>
    </contour>
    <contour>
      <point x="320" y="700" type="line"/>
      <point x="333" y="700" type="line"/>
      <point x="277" y="420" type="line"/>
      <point x="270" y="420" type="line"/>
    </contour>
  </outline>
</glyph>
<glyph name="ampersand" format="2">
  <advance width="675"/>
  <unicode hex="0026"/>
  <outline>
    <contour>
      <point x="183" y="427" type="line" smooth="yes"/>
      <point x="150" y="465"/>
      <point x="117" y="504"/>
      <point x="117" y="576" type="curve" smooth="yes"/>
      <point x="117" y="650"/>
      <point x="168" y="711"/>
      <point x="268" y="711" type="curve" smooth="yes"/>
      <point x="363" y="711"/>
      <point x="406" y="638"/>
      <point x="406" y="574" type="curve" smooth="yes"/>
      <point x="406" y="507"/>
      <point x="354" y="457"/>
      <point x="261" y="400" type="curve" smooth="yes"/>
      <point x="189" y="356"/>
      <point x="50" y="313"/>
      <point x="50" y="173" type="curve" smooth="yes"/>
      <point x="50" y="60"/>
      <point x="135" y="0"/>
      <point x="245" y="0" type="curve" smooth="yes"/>
      <point x="416" y="0"/>
      <point x="501" y="175"/>
      <point x="603" y="316" type="curve"/>
      <point x="611" y="311" type="line"/>
      <point x="508" y="171"/>
      <point x="424" y="-10"/>
      <point x="245" y="-10" type="curve" smooth="yes"/>
      <point x="130" y="-10"/>
      <point x="40" y="54"/>
      <point x="40" y="173" type="curve" smooth="yes"/>
      <point x="40" y="320"/>
      <point x="187" y="367"/>
      <point x="254" y="407" type="curve" smooth="yes"/>
      <point x="343" y="460"/>
      <point x="396" y="513"/>
      <point x="396" y="574" type="curve" smooth="yes"/>
      <point x="396" y="630"/>
      <point x="358" y="701"/>
      <point x="268" y="701" type="curve" smooth="yes"/>
      <point x="173" y="701"/>
      <point x="127" y="642"/>
      <point x="127" y="576" type="curve" smooth="yes"/>
      <point x="127" y="506"/>
      <point x="160" y="469"/>
      <point x="190" y="435" type="curve" smooth="yes"/>
      <point x="571" y="0" type="line"/>
      <point x="558" y="0" type="line"/>
    </contour>
  </outline>
</glyph>
<glyph name="parenleft" format="2">
  <advance width="240"/>
  <unicode hex="0028"/>
  <outline>
    <contour>
      <point x="205" y="780" type="curve"/>
      <point x="210" y="780" type="line"/>
      <point x="135" y="620"/>
      <point x="100" y="460"/>
      <point x="100" y="290" type="curve" smooth="yes"/>
      <point x="100" y="120"/>
      <point x="135" y="-40"/>
      <point x="210" y="-200" type="curve"/>
      <point x="205" y="-200" type="line"/>
      <point x="125" y="-50"/>
      <point x="90" y="120"/>
      <point x="90" y="290" type="curve" smooth="yes"/>
      <point x="90" y="460"/>
      <point x="125" y="630"/>
    </contour>
  </outline>
</glyph>
<glyph name="zero" format="2">
  <advance width="550"/>
  <unicode hex="0030"/>
  <outline>
    <contour>
      <point x="66" y="350" type="curve" smooth="yes"/>
      <point x="66" y="163"/>
      <point x="143" y="0"/>
      <point x="275" y="0" type="curve" smooth="yes"/>
      <point x="407" y="0"/>
      <point x="484" y="163"/>
      <point x="484" y="350" type="curve" smooth="yes"/>
      <point x="484" y="537"/>
      <point x="407" y="700"/>
      <point x="275" y="700" type="curve" smooth="yes"/>
      <point x="143" y="700"/>
      <point x="66" y="537"/>
    </contour>
    <contour>
      <point x="55" y="350" type="curve" smooth="yes"/>
      <point x="55" y="549"/>
      <point x="136" y="710"/>
      <point x="275" y="710" type="curve" smooth="yes"/>
      <point x="414" y="710"/>
      <point x="495" y="549"/>
      <point x="495" y="350" type="curve" smooth="yes"/>
      <point x="495" y="151"/>
      <point x="414" y="-10"/>
      <point x="275" y="-10" type="curve" smooth="yes"/>
      <point x="136" y="-10"/>
      <point x="55" y="151"/>
    </contour>
  </outline>
</glyph>
<glyph name="two" format="2">
  <advance width="514"/>
  <unicode hex="0032"/>
  <outline>
    <contour>
      <point x="25" y="0" type="line"/>
      <point x="345" y="334" type="line" smooth="yes"/>
      <point x="394" y="385"/>
      <point x="440" y="435"/>
      <point x="440" y="519" type="curve" smooth="yes"/>
      <point x="440" y="598"/>
      <point x="392" y="701"/>
      <point x="262" y="701" type="curve" smooth="yes"/>
      <point x="142" y="701"/>
      <point x="65" y="601"/>
      <point x="65" y="460" type="curve"/>
      <point x="55" y="460" type="line"/>
      <point x="55" y="609"/>
      <point x="137" y="711"/>
      <point x="262" y="711" type="curve" smooth="yes"/>
      <point x="396" y="711"/>
      <point x="451" y="603"/>
      <point x="451" y="519" type="curve" smooth="yes"/>
      <point x="451" y="437"/>
      <point x="404" y="380"/>
      <point x="354" y="328" type="curve" smooth="yes"/>
      <point x="50" y="10" type="line"/>
      <point x="479" y="10" type="line"/>
      <point x="479" y="0" type="line"/>
    </contour>
  </outline>
</glyph>
<glyph name="eight" format="2">
  <advance width="516"/>
  <unicode hex="0038"/>
  <outline>
    <contour>
      <point x="85" y="541" type="curve" smooth="yes"/>
      <point x="85" y="630"/>
      <point x="158" y="710"/>
      <point x="258" y="710" type="curve" smooth="yes"/>
      <point x="358" y="710"/>
      <point x="431" y="630"/>
      <point x="431" y="541" type="curve" smooth="yes"/>
      <point x="431" y="442"/>
      <point x="343" y="368"/>
      <point x="258" y="368" type="curve" smooth="yes"/>
      <point x="173" y="368"/>
      <point x="85" y="442"/>
    </contour>
    <contour>
      <point x="95" y="541" type="curve" smooth="yes"/>
      <point x="95" y="445"/>
      <point x="188" y="375"/>
      <point x="258" y="375" type="curve" smooth="yes"/>
      <point x="328" y="375"/>
      <point x="421" y="445"/>
      <point x="421" y="541" type="curve" smooth="yes"/>
      <point x="421" y="627"/>
      <point x="353" y="700"/>
      <point x="258" y="700" type="curve" smooth="yes"/>
      <point x="163" y="700"/>
      <point x="95" y="627"/>
    </contour>
    <contour>
      <point x="65" y="185" type="curve" smooth="yes"/>
      <point x="65" y="294"/>
      <point x="158" y="372"/>
      <point x="258" y="372" type="curve" smooth="yes"/>
      <point x="358" y="372"/>
      <point x="451" y="294"/>
      <point x="451" y="185" type="curve" smooth="yes"/>
      <point x="451" y="76"/>
      <point x="383" y="-10"/>
      <point x="258" y="-10" type="curve" smooth="yes"/>
      <point x="133" y="-10"/>
      <point x="65" y="76"/>
    </contour>
    <contour>
      <point x="75" y="185" type="curve" smooth="yes"/>
      <point x="75" y="79"/>
      <point x="143" y="0"/>
      <point x="258" y="0" type="curve" smooth="yes"/>
      <point x="373" y="0"/>
      <point x="441" y="79"/>
      <point x="441" y="185" type="curve" smooth="yes"/>
      <point x="441" y="291"/>
      <point x="348" y="365"/>
      <point x="258" y="365" type="curve" smooth="yes"/>
      <point x="168" y="365"/>
      <point x="75" y="291"/>
    </contour>
  </outline>
</glyph>
<glyph name="semicolon" format="2">
  <advance width="276"/>
  <unicode hex="003B"/>
  <outline>
    <contour>
      <point x="149" y="349" type="curve" smooth="yes"/>
      <point x="149" y="356"/>
      <point x="154" y="360"/>
      <point x="160" y="360" type="curve" smooth="yes"/>
      <point x="166" y="360"/>
      <point x="171" y="356"/>
      <point x="171" y="349" type="curve" smooth="yes"/>
      <point x="171" y="342"/>
      <point x="166" y="338"/>
      <point x="160" y="338" type="curve" smooth="yes"/>
      <point x="154" y="338"/>
      <point x="149" y="342"/>
    </contour>
    <contour>
      <point x="175" y="94" type="line"/>
      <point x="186" y="89" type="line"/>
      <point x="76" y="-161" type="line"/>
      <point x="70" y="-159" type="line"/>
    </contour>
  </outline>
</glyph>
<glyph name="equal" format="2">
  <advance width="615"/>
  <unicode hex="003D"/>
  <outline>
    <contour>
      <point x="65" y="185" type="line"/>
      <point x="65" y="195" type="line"/>
      <point x="550" y="195" type="line"/>
      <point x="550" y="185" type="line"/>
    </contour>
    <contour>
      <point x="65" y="310" type="line"/>
      <point x="65" y="320" type="line"/>
      <point x="550" y="320" type="line"/>
      <point x="550" y="310" type="line"/>
    </contour>
  </outline>
</glyph>
<glyph name="greater" format="2">
  <advance width="640"/>
  <unicode hex="003E"/>
  <outline>
    <contour>
      <point x="558" y="258" type="line"/>
      <point x="65" y="460" type="line"/>
      <point x="65" y="470" type="line"/>
      <point x="575" y="261" type="line"/>
      <point x="575" y="255" type="line"/>
      <point x="65" y="45" type="line"/>
      <point x="65" y="55" type="line"/>
    </contour>
  </outline>
</glyph>
<glyph name="question" format="2">
  <advance width="542"/>
  <unicode hex="003F"/>
  <outline>
    <contour>
      <point x="452" y="520" type="curve" smooth="yes"/>
      <point x="452" y="621"/>
      <point x="384" y="700"/>
      <point x="264" y="700" type="curve" smooth="yes"/>
      <point x="172" y="700"/>
      <point x="118" y="656"/>
      <point x="74" y="587" type="curve"/>
      <point x="65" y="593" type="line"/>
      <point x="111" y="663"/>
      <point x="165" y="710"/>
      <point x="264" y="710" type="curve" smooth="yes"/>
      <point x="389" y="710"/>
      <point x="462" y="629"/>
      <point x="462" y="520" type="curve" smooth="yes"/>
      <point x="462" y="422"/>
      <point x="362" y="339"/>
      <point x="234" y="337" type="curve"/>
      <point x="235" y="170" type="line"/>
      <point x="227" y="170" type="line"/>
      <point x="222" y="345" type="line"/>
      <point x="223" y="345" type="line" smooth="yes"/>
      <point x="353" y="345"/>
      <point x="452" y="424"/>
    </contour>
    <contour>
      <point x="214" y="1" type="curve" smooth="yes"/>
      <point x="214" y="8"/>
      <point x="219" y="12"/>
      <point x="225" y="12" type="curve" smooth="yes"/>
      <point x="231" y="12"/>
      <point x="236" y="8"/>
      <point x="236" y="1" type="curve" smooth="yes"/>
      <point x="236" y="-6"/>
      <point x="231" y="-10"/>
      <point x="225" y="-10" type="curve" smooth="yes"/>
      <point x="219" y="-10"/>
      <point x="214" y="-6"/>
    </contour>
  </outline>
</glyph>
<glyph name="B" format="1">
  <advance width="495"/>
  <unicode hex="0042"/>
  <outline>
    <contour>
      <point x="97" y="386" type="line"/>
      <point x="97" y="394" type="line"/>
      <point x="200" y="394" type="line" smooth="yes"/>
      <point x="300" y="394"/>
      <point x="387" y="434"/>
      <point x="387" y="540" type="curve" smooth="yes"/>
      <point x="387" y="634"/>
      <point x="320" y="689"/>
      <point x="200" y="689" type="curve" smooth="yes"/>
      <point x="100" y="689" type="line"/>
      <point x="100" y="11" type="line"/>
      <point x="210" y="11" type="line" smooth="yes"/>
      <point x="340" y="11"/>
      <point x="424" y="69"/>
      <point x="424" y="200" type="curve" smooth="yes"/>
      <point x="424" y="316"/>
      <point x="310" y="384"/>
      <point x="210" y="384" type="curve" smooth="yes"/>
      <point x="97" y="384" type="line"/>
      <point x="97" y="392" type="line"/>
      <point x="220" y="392" type="line" smooth="yes"/>
      <point x="305" y="392"/>
      <point x="435" y="329"/>
      <point x="435" y="200" type="curve" smooth="yes"/>
      <point x="435" y="61"/>
      <point x="345" y="0"/>
      <point x="210" y="0" type="curve" smooth="yes"/>
      <point x="90" y="0" type="line"/>
      <point x="90" y="700" type="line"/>
      <point x="200" y="700" type="line" smooth="yes"/>
      <point x="325" y="700"/>
      <point x="398" y="639"/>
      <point x="398" y="540" type="curve" smooth="yes"/>
      <point x="398" y="431"/>
      <point x="315" y="386"/>
      <point x="210" y="386" type="curve" smooth="yes"/>
    </contour>
  </outline>
</glyph>
<glyph name="H" format="2">
  <advance width="647"/>
  <unicode hex="0048"/>
  <outline>
    <contour>
      <point x="93" y="377" type="line"/>
      <point x="93" y="387" type="line"/>
      <point x="553" y="387" type="line"/>
      <point x="553" y="377" type="line"/>
    </contour>
    <contour>
      <point x="546" y="700" type="line"/>
      <point x="557" y="700" type="line"/>
      <point x="557" y="0" type="line"/>
      <point x="546" y="0" type="line"/>
    </contour>
    <contour>
      <point x="90" y="700" type="line"/>
      <point x="101" y="700" type="line"/>
      <point x="101" y="0" type="line"/>
      <point x="90" y="0" type="line"/>
    </contour>
  </outline>
</glyph>
<glyph name="N" format="2">
  <advance width="725"/>
  <unicode hex="004E"/>
  <outline>
    <contour>
      <point x="624" y="700" type="line"/>
      <point x="635" y="700" type="line"/>
      <point x="635" y="-15" type="line"/>
      <point x="101" y="678" type="line"/>
      <point x="101" y="0" type="line"/>
      <point x="90" y="0" type="line"/>
      <point x="90" y="715" type="line"/>
      <point x="624" y="17" type="line"/>
    </contour>
  </outline>
</glyph>
<glyph name="T" format="2">
  <advance width="431"/>
  <unicode hex="0054"/>
  <outline>
    <contour>
      <point x="20" y="689" type="line"/>
      <point x="20" y="700" type="line"/>
      <point x="411" y="700" type="line"/>
      <point x="411" y="689" type="line"/>
      <point x="221" y="689" type="line"/>
      <point x="221" y="0" type="line"/>
      <point x="210" y="0" type="line"/>
      <point x="210" y="689" type="line"/>
    </contour>
  </outline>
</glyph>
<glyph name="V" format="2">
  <advance width="600"/>
  <unicode hex="0056"/>
  <outline>
    <contour>
      <point x="300" y="15" type="line"/>
      <point x="572" y="700" type="line"/>
      <point x="585" y="700" type="line"/>
      <point x="300" y="-15" type="line"/>
      <point x="15" y="700" type="line"/>
      <point x="28" y="700" type="line"/>
    </contour>
  </outline>
</glyph>
<glyph name="X" format="2">
  <advance width="500"/>
  <unicode hex="0058"/>
  <outline>
    <contour>
      <point x="451" y="700" type="line"/>
      <point x="465" y="700" type="line"/>
      <point x="259" y="367" type="line"/>
      <point x="480" y="0" type="line"/>
      <point x="466" y="0" type="line"/>
      <point x="252" y="356" type="line"/>
      <point x="34" y="0" type="line"/>
      <point x="20" y="0" type="line"/>
      <point x="246" y="367" type="line"/>
      <point x="45" y="700" type="line"/>
      <point x="59" y="700" type="line"/>
      <point x="253" y="377" type="line"/>
    </contour>
  </outline>
</glyph>
<glyph name="Y" format="2">
  <advance width="507"/>
  <unicode hex="0059"/>
  <outline>
    <contour>
      <point x="479" y="700" type="line"/>
      <point x="492" y="700" type="line"/>
      <point x="254" y="267" type="line"/>
      <point x="254" y="0" type="line"/>
      <point x="243" y="0" type="line"/>
      <point x="243" y="266" type="line"/>
      <point x="15" y="700" type="line"/>
      <point x="28" y="700" type="line"/>
      <point x="248" y="281" type="line"/>
    </contour>
  </outline>
</glyph>
<glyph name="bracketright" format="2">
  <advance width="260"/>
  <unicode hex="005D"/>
  <outline>
    <contour>
      <point x="149" y="-209" type="line"/>
      <point x="149" y="769" type="line"/>
      <point x="20" y="769" type="line"/>
      <point x="20" y="780" type="line"/>
      <point x="160" y="780" type="line"/>
      <point x="160" y="-220" type="line"/>
      <point x="20" y="-220" type="line"/>
      <point x="20" y="-209" type="line"/>
    </contour>
  </outline>
</glyph>
<glyph name="m" format="2">
  <advance width="690"/>
  <unicode hex="006D"/>
  <outline>
    <contour>
      <point x="340" y="320" type="line" smooth="yes"/>
      <point x="340" y="401"/>
      <point x="307" y="460"/>
      <point x="237" y="460" type="curve" smooth="yes"/>
      <point x="167" y="460"/>
      <point x="95" y="376"/>
      <point x="95" y="280" type="curve"/>
      <point x="90" y="280" type="line"/>
      <point x="90" y="389"/>
      <point x="162" y="470"/>
      <point x="237" y="470" type="curve" smooth="yes"/>
      <point x="312" y="470"/>
      <point x="350" y="409"/>
      <point x="350" y="320" type="curve" smooth="yes"/>
      <point x="350" y="0" type="line"/>
      <point x="340" y="0" type="line"/>
    </contour>
    <contour>
      <point x="95" y="460" type="line"/>
      <point x="95" y="0" type="line"/>
      <point x="85" y="0" type="line"/>
      <point x="85" y="460" type="line"/>
    </contour>
    <contour>
      <point x="605" y="320" type="curve" smooth="yes"/>
      <point x="605" y="0" type="line"/>
      <point x="595" y="0" type="line"/>
      <point x="595" y="320" type="line" smooth="yes"/>
      <point x="595" y="401"/>
      <point x="562" y="460"/>
      <point x="492" y="460" type="curve" smooth="yes"/>
      <point x="421" y="460"/>
      <point x="350" y="375"/>
      <point x="350" y="280" type="curve"/>
      <point x="343" y="280" type="line"/>
      <point x="343" y="389"/>
      <point x="417" y="470"/>
      <point x="492" y="470" type="curve" smooth="yes"/>
      <point x="567" y="470"/>
      <point x="605" y="409"/>
    </contour>
  </outline>
</glyph>
<glyph name="v" format="1">
  <advance width="420"/>
  <unicode hex="0076"/>
  <outline>
    <contour>
      <point x="10" y="460" type="line"/>
      <point x="22" y="460" type="line"/>
      <point x="210" y="10" type="line"/>
      <point x="398" y="460" type="line"/>
      <point x="410" y="460" type="line"/>
      <point x="210" y="-15" type="line"/>
    </contour>
  </outline>
</glyph>
<glyph name="x" format="2">
  <advance width="380"/>
  <unicode hex="0078"/>
  <outline>
    <contour>
      <point x="345" y="460" type="line"/>
      <point x="359" y="460" type="line"/>
      <point x="197" y="237" type="line"/>
      <point x="370" y="0" type="line"/>
      <point x="355" y="0" type="line"/>
      <point x="190" y="229" type="line"/>
      <point x="25" y="0" type="line"/>
      <point x="10" y="0" type="line"/>
      <point x="183" y="237" type="line"/>
      <point x="20" y="460" type="line"/>
      <point x="35" y="460" type="line"/>
      <point x="190" y="245" type="line"/>
    </contour>
  </outline>
</glyph>
<glyph name="asciitilde" format="2">
  <advance width="575"/>
  <unicode hex="007E"/>
  <outline>
    <contour>
      <point x="88" y="178" type="curve"/>
      <point x="78" y="181" type="line"/>
      <point x="76" y="188"/>
      <point x="75" y="196"/>
      <point x="75" y="205" type="curve" smooth="yes"/>
      <point x="75" y="238"/>
      <point x="83" y="268"/>
      <point x="101" y="290" type="curve" smooth="yes"/>
      <point x="120" y="313"/>
      <point x="148" y="327"/>
      <point x="184" y="327" type="curve" smooth="yes"/>
      <point x="243" y="327"/>
      <point x="275" y="282"/>
      <point x="302" y="250" type="curve" smooth="yes"/>
      <point x="326" y="221"/>
      <point x="356" y="182"/>
      <point x="404" y="182" type="curve" smooth="yes"/>
      <point x="463" y="182"/>
      <point x="491" y="228"/>
      <point x="491" y="290" type="curve" smooth="yes"/>
      <point x="491" y="298"/>
      <point x="490" y="311"/>
      <point x="486" y="321" type="curve"/>
      <point x="496" y="318" type="line"/>
      <point x="498" y="310"/>
      <point x="500" y="300"/>
      <point x="500" y="290" type="curve" smooth="yes"/>
      <point x="500" y="258"/>
      <point x="494" y="228"/>
      <point x="478" y="207" type="curve" smooth="yes"/>
      <point x="462" y="185"/>
      <point x="437" y="172"/>
      <point x="404" y="172" type="curve" smooth="yes"/>
      <point x="350" y="172"/>
      <point x="322" y="211"/>
      <point x="294" y="243" type="curve" smooth="yes"/>
      <point x="269" y="271"/>
      <point x="239" y="317"/>
      <point x="184" y="317" type="curve" smooth="yes"/>
      <point x="121" y="317"/>
      <point x="84" y="268"/>
      <point x="84" y="200" type="curve" smooth="yes"/>
      <point x="84" y="193"/>
      <point x="85" y="186"/>
    </contour>
  </outline>
</glyph>
<glyph name="brokenbar" format="1">
  <advance width="210"/>
  <unicode hex="00A6"/>
  <outline>
    <contour>
      <point x="100" y="695" type="line"/>
      <point x="110" y="695" type="line"/>
      <point x="110" y="455" type="line"/>
      <point x="100" y="455" type="line"/>
    </contour>
    <contour>
      <point x="110" y="245" type="line"/>
      <point x="110" y="5" type="line"/>
      <point x="100" y="5" type="line"/>
      <point x="100" y="245" type="line"/>
    </contour>
  </outline>
</glyph>
<glyph name="guillemotleft" format="1">
  <advance width="485"/>
  <unicode hex="00AB"/>
  <outline>
    <contour>
      <point x="210" y="255" type="line"/>
      <point x="415" y="27" type="line"/>
      <point x="408" y="20" type="line"/>
      <point x="200" y="255" type="line"/>
      <point x="408" y="490" type="line"/>
      <point x="415" y="483" type="line"/>
    </contour>
    <contour>
      <point x="50" y="255" type="line"/>
      <point x="255" y="27" type="line"/>
      <point x="248" y="20" type="line"/>
      <point x="40" y="255" type="line"/>
      <point x="248" y="490" type="line"/>
      <point x="255" y="483" type="line"/>
    </contour>
  </outline>
</glyph>
<glyph name="degree" format="1">
  <advance width="278"/>
  <unicode hex="00B0"/>
  <outline>
    <contour>
      <point x="20" y="600" type="curve" smooth="yes"/>
      <point x="20" y="670"/>
      <point x="71" y="720"/>
      <point x="139" y="720" type="curve" smooth="yes"/>
      <point x="207" y="720"/>
      <point x="258" y="670"/>
      <point x="258" y="600" type="curve" smooth="yes"/>
      <point x="258" y="530"/>
      <point x="207" y="480"/>
      <point x="139" y="480" type="curve" smooth="yes"/>
      <point x="71" y="480"/>
      <point x="20" y="530"/>
    </contour>
    <contour>
      <point x="30" y="600" type="curve" smooth="yes"/>
      <point x="30" y="535"/>
      <point x="79" y="490"/>
      <point x="139" y="490" type="curve" smooth="yes"/>
      <point x="199" y="490"/>
      <point x="248" y="535"/>
      <point x="248" y="600" type="curve" smooth="yes"/>
      <point x="248" y="665"/>
      <point x="199" y="710"/>
      <point x="139" y="710" type="curve" smooth="yes"/>
      <point x="79" y="710"/>
      <point x="30" y="665"/>
    </contour>
  </outline>
</glyph>
<glyph name="mu" format="2">
  <advance width="475"/>
  <unicode hex="00B5"/>
  <outline>
    <contour>
      <point x="380" y="0" type="line"/>
      <point x="380" y="460" type="line"/>
      <point x="390" y="460" type="line"/>
      <point x="390" y="0" type="line"/>
    </contour>
    <contour>
      <point x="95" y="150" type="line" smooth="yes"/>
      <point x="95" y="59"/>
      <point x="128" y="0"/>
      <point x="218" y="0" type="curve" smooth="yes"/>
      <point x="309" y="0"/>
      <point x="380" y="85"/>
      <point x="380" y="180" type="curve"/>
      <point x="385" y="180" type="line"/>
      <point x="385" y="71"/>
      <point x="313" y="-10"/>
      <point x="218" y="-10" type="curve" smooth="yes"/>
      <point x="123" y="-10"/>
      <point x="85" y="51"/>
      <point x="85" y="150" type="curve" smooth="yes"/>
      <point x="85" y="460" type="line"/>
      <point x="95" y="460" type="line"/>
    </contour>
    <contour>
      <point x="85" y="460" type="line"/>
      <point x="95" y="460" type="line"/>
      <point x="95" y="-320" type="line"/>
      <point x="85" y="-320" type="line"/>
    </contour>
  </outline>
</glyph>
<glyph name="cedilla" format="1">
  <advance width="350"/>
  <unicode hex="00B8"/>
  <outline>
    <contour>
      <point x="176" y="0" type="line"/>
      <point x="188" y="0" type="line"/>
      <point x="132" y="-76" type="line"/>
      <point x="158" y="-60"/>
      <point x="169" y="-52"/>
      <point x="202" y="-52" type="curve" smooth="yes"/>
      <point x="235" y="-52"/>
      <point x="275" y="-77"/>
      <point x="275" y="-126" type="curve" smooth="yes"/>
      <point x="275" y="-187"/>
      <point x="223" y="-220"/>
      <point x="168" y="-220" type="curve" smooth="yes"/>
      <point x="131" y="-220"/>
      <point x="107" y="-210"/>
      <point x="79" y="-182" type="curve"/>
      <point x="86" y="-176" type="line"/>
      <point x="114" y="-200"/>
      <point x="135" y="-210"/>
      <point x="168" y="-210" type="curve" smooth="yes"/>
      <point x="215" y="-210"/>
      <point x="265" y="-182"/>
      <point x="265" y="-126" type="curve" smooth="yes"/>
      <point x="265" y="-82"/>
      <point x="231" y="-62"/>
      <point x="202" y="-62" type="curve" smooth="yes"/>
      <point x="172" y="-62"/>
      <point x="144" y="-72"/>
      <point x="121" y="-88" type="curve"/>
    </contour>
  </outline>
</glyph>
<glyph name="onequarter" format="1">
  <advance width="754"/>
  <unicode hex="00BC"/>
  <outline>
    <contour>
      <point x="671" y="700" type="line"/>
      <point x="683" y="700" type="line"/>
      <point x="110" y="0" type="line"/>
      <point x="98" y="0" type="line"/>
    </contour>
    <contour>
      <point x="21" y="666" type="line"/>
      <point x="21" y="673" type="line"/>
      <point x="129" y="697" type="line"/>
      <point x="129" y="274" type="line"/>
      <point x="123" y="274" type="line"/>
      <point x="123" y="689" type="line"/>
    </contour>
    <contour>
      <point x="401" y="84" type="line"/>
      <point x="407" y="90" type="line"/>
      <point x="627" y="90" type="line" smooth="yes"/>
      <point x="629" y="90" type="line" smooth="yes"/>
      <point x="697" y="90" type="line"/>
      <point x="697" y="84" type="line"/>
    </contour>
    <contour>
      <point x="408" y="84" type="line"/>
      <point x="401" y="84" type="line"/>
      <point x="631" y="420" type="line"/>
      <point x="631" y="420" type="line"/>
      <point x="631" y="0" type="line"/>
      <point x="625" y="0" type="line"/>
      <point x="625" y="85" type="line" smooth="yes"/>
      <point x="625" y="88" type="line" smooth="yes"/>
      <point x="625" y="400" type="line"/>
    </contour>
  </outline>
</glyph>
<glyph name="Agrave" format="2">
  <advance width="600"/>
  <unicode hex="00C0"/>
  <outline>
    <contour>
      <point x="127" y="272" type="line"/>
      <point x="127" y="282" type="line"/>
      <point x="472" y="282" type="line"/>
      <point x="472" y="272" type="line"/>
    </contour>
    <contour>
      <point x="300" y="688" type="line"/>
      <point x="136" y="277" type="line"/>
      <point x="135" y="273" type="line"/>
      <point x="27" y="0" type="line"/>
      <point x="15" y="0" type="line"/>
      <point x="300" y="715" type="line"/>
      <point x="585" y="0" type="line"/>
      <point x="573" y="0" type="line"/>
      <point x="466" y="273" type="line"/>
      <point x="465" y="276" type="line"/>
    </contour>
    <contour>
      <point x="164" y="932" type="line"/>
      <point x="172" y="940" type="line"/>
      <point x="342" y="780" type="line"/>
      <point x="338" y="775" type="line"/>
    </contour>
  </outline>
</glyph>
<glyph name="Ccedilla" format="1">
  <advance width="685"/>
  <unicode hex="00C7"/>
  <outline>
    <contour>
      <point x="62" y="350" type="curve" smooth="yes"/>
      <point x="62" y="150"/>
      <point x="193" y="4"/>
      <point x="380" y="4" type="curve" smooth="yes"/>
      <point x="479" y="4"/>
      <point x="547" y="31"/>
      <point x="605" y="88" type="curve"/>
      <point x="605" y="72" type="line"/>
      <point x="546" y="20"/>
      <point x="482" y="-8"/>
      <point x="380" y="-8" type="curve" smooth="yes"/>
      <point x="186" y="-8"/>
      <point x="50" y="141"/>
      <point x="50" y="350" type="curve" smooth="yes"/>
      <point x="50" y="559"/>
      <point x="186" y="708"/>
      <point x="380" y="708" type="curve" smooth="yes"/>
      <point x="482" y="708"/>
      <point x="546" y="680"/>
      <point x="605" y="628" type="curve"/>
      <point x="605" y="613" type="line"/>
      <point x="549" y="669"/>
      <point x="474" y="696"/>
      <point x="380" y="696" type="curve" smooth="yes"/>
      <point x="194" y="696"/>
      <point x="62" y="553"/>
    </contour>
    <contour>
      <point x="374" y="-1" type="line"/>
      <point x="386" y="-1" type="line"/>
      <point x="330" y="-77" type="line"/>
      <point x="356" y="-61"/>
      <point x="367" y="-53"/>
      <point x="400" y="-53" type="curve" smooth="yes"/>
      <point x="433" y="-53"/>
      <point x="473" y="-78"/>
      <point x="473" y="-127" type="curve" smooth="yes"/>
      <point x="473" y="-188"/>
      <point x="421" y="-221"/>
      <point x="366" y="-221" type="curve" smooth="yes"/>
      <point x="329" y="-221"/>
      <point x="305" y="-211"/>
      <point x="277" y="-183" type="curve"/>
      <point x="284" y="-177" type="line"/>
      <point x="312" y="-201"/>
      <point x="333" y="-211"/>
      <point x="366" y="-211" type="curve" smooth="yes"/>
      <point x="413" y="-211"/>
      <point x="463" y="-183"/>
      <point x="463" y="-127" type="curve" smooth="yes"/>
      <point x="463" y="-83"/>
      <point x="429" y="-63"/>
      <point x="400" y="-63" type="curve" smooth="yes"/>
      <point x="370" y="-63"/>
      <point x="342" y="-73"/>
      <point x="319" y="-89" type="curve"/>
    </contour>
  </outline>
</glyph>
<glyph name="Edieresis" format="2">
  <advance width="510"/>
  <unicode hex="00CB"/>
  <outline>
    <contour>
      <point x="92" y="0" type="line"/>
      <point x="92" y="10" type="line"/>
      <point x="430" y="10" type="line"/>
      <point x="430" y="0" type="line"/>
    </contour>
    <contour>
      <point x="92" y="690" type="line"/>
      <point x="92" y="700" type="line"/>
      <point x="430" y="700" type="line"/>
      <point x="430" y="690" type="line"/>
    </contour>
    <contour>
      <point x="92" y="384" type="line"/>
      <point x="92" y="394" type="line"/>
      <point x="410" y="394" type="line"/>
      <point x="410" y="384" type="line"/>
    </contour>
    <contour>
      <point x="90" y="700" type="line"/>
      <point x="101" y="700" type="line"/>
      <point x="101" y="0" type="line"/>
      <point x="90" y="0" type="line"/>
    </contour>
    <contour>
      <point x="349" y="799" type="curve" smooth="yes"/>
      <point x="349" y="806"/>
      <point x="354" y="810"/>
      <point x="360" y="810" type="curve" smooth="yes"/>
      <point x="366" y="810"/>
      <point x="371" y="806"/>
      <point x="371" y="799" type="curve" smooth="yes"/>
      <point x="371" y="792"/>
      <point x="366" y="788"/>
      <point x="360" y="788" type="curve" smooth="yes"/>
      <point x="354" y="788"/>
      <point x="349" y="792"/>
    </contour>
    <contour>
      <point x="149" y="799" type="curve" smooth="yes"/>
      <point x="149" y="806"/>
      <point x="154" y="810"/>
      <point x="160" y="810" type="curve" smooth="yes"/>
      <point x="166" y="810"/>
      <point x="171" y="806"/>
      <point x="171" y="799" type="curve" smooth="yes"/>
      <point x="171" y="792"/>
      <point x="166" y="788"/>
      <point x="160" y="788" type="curve" smooth="yes"/>
      <point x="154" y="788"/>
      <point x="149" y="792"/>
    </contour>
  </outline>
</glyph>
<glyph name="Igrave" format="2">
  <advance width="180"/>
  <unicode hex="00CC"/>
  <outline>
    <contour>
      <point x="85" y="700" type="line"/>
      <point x="95" y="700" type="line"/>
      <point x="95" y="0" type="line"/>
      <point x="85" y="0" type="line"/>
    </contour>
    <contour>
      <point x="-66" y="925" type="line"/>
      <point x="-58" y="933" type="line"/>
      <point x="112" y="773" type="line"/>
      <point x="108" y="768" type="line"/>
    </contour>
  </outline>
</glyph>
<glyph name="Ugrave" format="1">
  <advance width="576"/>
  <unicode hex="00D9"/>
  <outline>
    <contour>
      <point x="85" y="700" type="line"/>
      <point x="96" y="700" type="line"/>
      <point x="96" y="220" type="line" smooth="yes"/>
      <point x="96" y="84"/>
      <point x="168" y="1"/>
      <point x="288" y="1" type="curve" smooth="yes"/>
      <point x="408" y="1"/>
      <point x="480" y="84"/>
      <point x="480" y="220" type="curve" smooth="yes"/>
      <point x="480" y="700" type="line"/>
      <point x="491" y="700" type="line"/>
      <point x="491" y="220" type="line" smooth="yes"/>
      <point x="491" y="81"/>
      <point x="423" y="-10"/>
      <point x="288" y="-10" type="curve" smooth="yes"/>
      <point x="153" y="-10"/>
      <point x="85" y="81"/>
      <point x="85" y="220" type="curve" smooth="yes"/>
    </contour>
    <contour>
      <point x="152" y="925" type="line"/>
      <point x="160" y="933" type="line"/>
      <point x="330" y="773" type="line"/>
      <point x="326" y="768" type="line"/>
    </contour>
  </outline>
</glyph>
<glyph name="Yacute" format="1">
  <advance width="507"/>
  <unicode hex="00DD"/>
  <outline>
    <contour>
      <point x="409" y="925" type="line"/>
      <point x="236" y="768" type="line"/>
      <point x="231" y="773" type="line"/>
      <point x="401" y="933" type="line"/>
    </contour>
    <contour>
      <point x="479" y="700" type="line"/>
      <point x="492" y="700" type="line"/>
      <point x="254" y="267" type="line"/>
      <point x="254" y="0" type="line"/>
      <point x="243" y="0" type="line"/>
      <point x="243" y="266" type="line"/>
      <point x="15" y="700" type="line"/>
      <point x="28" y="700" type="line"/>
      <point x="248" y="281" type="line"/>
    </contour>
  </outline>
</glyph>
<glyph name="Thorn" format="1">
  <advance width="520"/>
  <unicode hex="00DE"/>
  <outline>
    <contour>
      <point x="80" y="700" type="line"/>
      <point x="90" y="700" type="line"/>
      <point x="90" y="0" type="line"/>
      <point x="80" y="0" type="line"/>
    </contour>
    <contour>
      <point x="84" y="550" type="line"/>
      <point x="84" y="560" type="line"/>
      <point x="240" y="560" type="line" smooth="yes"/>
      <point x="375" y="560"/>
      <point x="478" y="479"/>
      <point x="478" y="350" type="curve" smooth="yes"/>
      <point x="478" y="221"/>
      <point x="375" y="140"/>
      <point x="240" y="140" type="curve" smooth="yes"/>
      <point x="84" y="140" type="line"/>
      <point x="84" y="150" type="line"/>
      <point x="240" y="150" type="line" smooth="yes"/>
      <point x="365" y="150"/>
      <point x="467" y="234"/>
      <point x="467" y="350" type="curve" smooth="yes"/>
      <point x="467" y="476"/>
      <point x="365" y="550"/>
      <point x="240" y="550" type="curve" smooth="yes"/>
    </contour>
  </outline>
</glyph>
<glyph name="germandbls" format="1">
  <advance width="530"/>
  <unicode hex="00DF"/>
  <outline>
    <contour>
      <point x="252" y="0" type="line"/>
      <point x="382" y="0"/>
      <point x="475" y="94"/>
      <point x="475" y="225" type="curve" smooth="yes"/>
      <point x="475" y="378"/>
      <point x="342" y="443"/>
      <point x="232" y="443" type="curve"/>
      <point x="232" y="450" type="line"/>
      <point x="387" y="450"/>
      <point x="485" y="354"/>
      <point x="485" y="225" type="curve" smooth="yes"/>
      <point x="485" y="86"/>
      <point x="387" y="-10"/>
      <point x="252" y="-10" type="curve"/>
    </contour>
    <contour>
      <point x="232" y="445" type="curve"/>
      <point x="232" y="453" type="line"/>
      <point x="342" y="453"/>
      <point x="435" y="490"/>
      <point x="435" y="606" type="curve" smooth="yes"/>
      <point x="435" y="702"/>
      <point x="387" y="780"/>
      <point x="257" y="780" type="curve" smooth="yes"/>
      <point x="157" y="780"/>
      <point x="90" y="702"/>
      <point x="90" y="606" type="curve" smooth="yes"/>
      <point x="90" y="0" type="line"/>
      <point x="80" y="0" type="line"/>
      <point x="80" y="606" type="line" smooth="yes"/>
      <point x="80" y="715"/>
      <point x="152" y="790"/>
      <point x="257" y="790" type="curve" smooth="yes"/>
      <point x="392" y="790"/>
      <point x="445" y="715"/>
      <point x="445" y="606" type="curve" smooth="yes"/>
      <point x="445" y="507"/>
      <point x="387" y="445"/>
    </contour>
  </outline>
</glyph>
<glyph name="atilde" format="1">
  <advance width="435"/>
  <unicode hex="00E3"/>
  <outline>
    <contour>
      <point x="50" y="135" type="curve" smooth="yes"/>
      <point x="50" y="37"/>
      <point x="123" y="0"/>
      <point x="193" y="0" type="curve" smooth="yes"/>
      <point x="283" y="0"/>
      <point x="355" y="74"/>
      <point x="355" y="160" type="curve"/>
      <point x="360" y="160" type="line"/>
      <point x="360" y="71"/>
      <point x="295" y="-10"/>
      <point x="193" y="-10" type="curve" smooth="yes"/>
      <point x="118" y="-10"/>
      <point x="40" y="31"/>
      <point x="40" y="135" type="curve" smooth="yes"/>
      <point x="40" y="232"/>
      <point x="130" y="281"/>
      <point x="221" y="281" type="curve" smooth="yes"/>
      <point x="299" y="281"/>
      <point x="337" y="253"/>
      <point x="358" y="235" type="curve"/>
      <point x="358" y="225" type="line"/>
      <point x="334" y="247"/>
      <point x="289" y="271"/>
      <point x="221" y="271" type="curve" smooth="yes"/>
      <point x="138" y="271"/>
      <point x="50" y="227"/>
    </contour>
    <contour>
      <point x="84" y="395" type="curve"/>
      <point x="77" y="403" type="line"/>
      <point x="110" y="434"/>
      <point x="160" y="470"/>
      <point x="233" y="470" type="curve" smooth="yes"/>
      <point x="323" y="470"/>
      <point x="365" y="409"/>
      <point x="365" y="320" type="curve" smooth="yes"/>
      <point x="365" y="0" type="line"/>
      <point x="355" y="0" type="line"/>
      <point x="355" y="320" type="line" smooth="yes"/>
      <point x="355" y="406"/>
      <point x="316" y="460"/>
      <point x="233" y="460" type="curve" smooth="yes"/>
      <point x="167" y="460"/>
      <point x="121" y="430"/>
    </contour>
    <contour>
      <point x="98" y="581" type="line"/>
      <point x="98" y="610"/>
      <point x="115" y="639"/>
      <point x="160" y="639" type="curve" smooth="yes"/>
      <point x="215" y="639"/>
      <point x="230" y="592"/>
      <point x="284" y="592" type="curve" smooth="yes"/>
      <point x="313" y="592"/>
      <point x="325" y="608"/>
      <point x="340" y="640" type="curve"/>
      <point x="348" y="637" type="line"/>
      <point x="332" y="600"/>
      <point x="312" y="584"/>
      <point x="282" y="584" type="curve" smooth="yes"/>
      <point x="227" y="584"/>
      <point x="207" y="631"/>
      <point x="162" y="631" type="curve" smooth="yes"/>
      <point x="121" y="631"/>
      <point x="106" y="605"/>
      <point x="106" y="580" type="curve"/>
    </contour>
  </outline>
</glyph>
<glyph name="iacute" format="2">
  <advance width="190"/>
  <unicode hex="00ED"/>
  <outline>
    <contour>
      <point x="90" y="460" type="line"/>
      <point x="100" y="460" type="line"/>
      <point x="100" y="0" type="line"/>
      <point x="90" y="0" type="line"/>
    </contour>
    <contour>
      <point x="250" y="687" type="line"/>
      <point x="78" y="530" type="line"/>
      <point x="72" y="535" type="line"/>
      <point x="242" y="695" type="line"/>
    </contour>
  </outline>
</glyph>
<glyph name="icircumflex" format="1">
  <advance width="190"/>
  <unicode hex="00EE"/>
  <outline>
    <contour>
      <point x="90" y="460" type="line"/>
      <point x="100" y="460" type="line"/>
      <point x="100" y="0" type="line"/>
      <point x="90" y="0" type="line"/>
    </contour>
    <contour>
      <point x="95" y="665" type="line"/>
      <point x="-58" y="530" type="line"/>
      <point x="-65" y="537" type="line"/>
      <point x="95" y="677" type="line"/>
      <point x="255" y="537" type="line"/>
      <point x="248" y="530" type="line"/>
    </contour>
  </outline>
</glyph>
<glyph name="idieresis" format="1">
  <advance width="190"/>
  <unicode hex="00EF"/>
  <outline>
    <contour>
      <point x="90" y="460" type="line"/>
      <point x="100" y="460" type="line"/>
      <point x="100" y="0" type="line"/>
      <point x="90" y="0" type="line"/>
    </contour>
    <contour>
      <point x="164" y="541" type="curve" smooth="yes"/>
      <point x="164" y="548"/>
      <point x="169" y="552"/>
      <point x="175" y="552" type="curve" smooth="yes"/>
      <point x="181" y="552"/>
      <point x="186" y="548"/>
      <point x="186" y="541" type="curve" smooth="yes"/>
      <point x="186" y="534"/>
      <point x="181" y="530"/>
      <point x="175" y="530" type="curve" smooth="yes"/>
      <point x="169" y="530"/>
      <point x="164" y="534"/>
    </contour>
    <contour>
      <point x="4" y="541" type="curve" smooth="yes"/>
      <point x="4" y="548"/>
      <point x="9" y="552"/>
      <point x="15" y="552" type="curve" smooth="yes"/>
      <point x="21" y="552"/>
      <point x="26" y="548"/>
      <point x="26" y="541" type="curve" smooth="yes"/>
      <point x="26" y="534"/>
      <point x="21" y="530"/>
      <point x="15" y="530" type="curve" smooth="yes"/>
      <point x="9" y="530"/>
      <point x="4" y="534"/>
    </contour>
  </outline>
</glyph>
<glyph name="oacute" format="2">
  <advance width="556"/>
  <unicode hex="00F3"/>
  <outline>
    <contour>
      <point x="45" y="230" type="curve" smooth="yes"/>
      <point x="45" y="369"/>
      <point x="146" y="470"/>
      <point x="278" y="470" type="curve" smooth="yes"/>
      <point x="410" y="470"/>
      <point x="511" y="369"/>
      <point x="511" y="230" type="curve" smooth="yes"/>
      <point x="511" y="91"/>
      <point x="410" y="-10"/>
      <point x="278" y="-10" type="curve" smooth="yes"/>
      <point x="146" y="-10"/>
      <point x="45" y="91"/>
    </contour>
    <contour>
      <point x="55" y="230" type="curve" smooth="yes"/>
      <point x="55" y="96"/>
      <point x="153" y="0"/>
      <point x="278" y="0" type="curve" smooth="yes"/>
      <point x="403" y="0"/>
      <point x="501" y="96"/>
      <point x="501" y="230" type="curve" smooth="yes"/>
      <point x="501" y="364"/>
      <point x="403" y="460"/>
      <point x="278" y="460" type="curve" smooth="yes"/>
      <point x="153" y="460"/>
      <point x="55" y="364"/>
    </contour>
    <contour>
      <point x="414" y="687" type="line"/>
      <point x="240" y="530" type="line"/>
      <point x="236" y="535" type="line"/>
      <point x="406" y="695" type="line"/>
    </contour>
  </outline>
</glyph>
<glyph name="odieresis" format="2">
  <advance width="556"/>
  <unicode hex="00F6"/>
  <outline>
    <contour>
      <point x="45" y="230" type="curve" smooth="yes"/>
      <point x="45" y="369"/>
      <point x="146" y="470"/>
      <point x="278" y="470" type="curve" smooth="yes"/>
      <point x="410" y="470"/>
      <point x="511" y="369"/>
      <point x="511" y="230" type="curve" smooth="yes"/>
      <point x="511" y="91"/>
      <point x="410" y="-10"/>
      <point x="278" y="-10" type="curve" smooth="yes"/>
      <point x="146" y="-10"/>
      <point x="45" y="91"/>
    </contour>
    <contour>
      <point x="55" y="230" type="curve" smooth="yes"/>
      <point x="55" y="96"/>
      <point x="153" y="0"/>
      <point x="278" y="0" type="curve" smooth="yes"/>
      <point x="403" y="0"/>
      <point x="501" y="96"/>
      <point x="501" y="230" type="curve" smooth="yes"/>
      <point x="501" y="364"/>
      <point x="403" y="460"/>
      <point x="278" y="460" type="curve" smooth="yes"/>
      <point x="153" y="460"/>
      <point x="55" y="364"/>
    </contour>
    <contour>
      <point x="367" y="561" type="curve" smooth="yes"/>
      <point x="367" y="568"/>
      <point x="372" y="572"/>
      <point x="378" y="572" type="curve" smooth="yes"/>
      <point x="384" y="572"/>
      <point x="389" y="568"/>
      <point x="389" y="561" type="curve" smooth="yes"/>
      <point x="389" y="554"/>
      <point x="384" y="550"/>
      <point x="378" y="550" type="curve" smooth="yes"/>
      <point x="372" y="550"/>
      <point x="367" y="554"/>
    </contour>
    <contour>
      <point x="167" y="561" type="curve" smooth="yes"/>
      <point x="167" y="568"/>
      <point x="172" y="572"/>
      <point x="178" y="572" type="curve" smooth="yes"/>
      <point x="184" y="572"/>
      <point x="189" y="568"/>
      <point x="189" y="561" type="curve" smooth="yes"/>
      <point x="189" y="554"/>
      <point x="184" y="550"/>
      <point x="178" y="550" type="curve" smooth="yes"/>
      <point x="172" y="550"/>
      <point x="167" y="554"/>
    </contour>
  </outline>
</glyph>
<glyph name="amacron" format="2">
  <advance width="435"/>
  <unicode hex="0101"/>
  <outline>
    <contour>
      <point x="50" y="135" type="curve" smooth="yes"/>
      <point x="50" y="37"/>
      <point x="123" y="0"/>
      <point x="193" y="0" type="curve" smooth="yes"/>
      <point x="283" y="0"/>
      <point x="355" y="74"/>
      <point x="355" y="160" type="curve"/>
      <point x="360" y="160" type="line"/>
      <point x="360" y="71"/>
      <point x="295" y="-10"/>
      <point x="193" y="-10" type="curve" smooth="yes"/>
      <point x="118" y="-10"/>
      <point x="40" y="31"/>
      <point x="40" y="135" type="curve" smooth="yes"/>
      <point x="40" y="232"/>
      <point x="130" y="281"/>
      <point x="221" y="281" type="curve" smooth="yes"/>
      <point x="299" y="281"/>
      <point x="337" y="253"/>
      <point x="358" y="235" type="curve"/>
      <point x="358" y="225" type="line"/>
      <point x="334" y="247"/>
      <point x="289" y="271"/>
      <point x="221" y="271" type="curve" smooth="yes"/>
      <point x="138" y="271"/>
      <point x="50" y="227"/>
    </contour>
    <contour>
      <point x="84" y="395" type="curve"/>
      <point x="77" y="403" type="line"/>
      <point x="110" y="434"/>
      <point x="160" y="470"/>
      <point x="233" y="470" type="curve" smooth="yes"/>
      <point x="323" y="470"/>
      <point x="365" y="409"/>
      <point x="365" y="320" type="curve" smooth="yes"/>
      <point x="365" y="0" type="line"/>
      <point x="355" y="0" type="line"/>
      <point x="355" y="320" type="line" smooth="yes"/>
      <point x="355" y="406"/>
      <point x="316" y="460"/>
      <point x="233" y="460" type="curve" smooth="yes"/>
      <point x="167" y="460"/>
      <point x="121" y="430"/>
    </contour>
    <contour>
      <point x="58" y="550" type="line"/>
      <point x="58" y="560" type="line"/>
      <point x="408" y="560" type="line"/>
      <point x="408" y="550" type="line"/>
    </contour>
  </outline>
</glyph>
<glyph name="Abreve" format="2">
  <advance width="600"/>
  <unicode hex="0102"/>
  <outline>
    <contour>
      <point x="127" y="272" type="line"/>
      <point x="127" y="282" type="line"/>
      <point x="472" y="282" type="line"/>
      <point x="472" y="272" type="line"/>
    </contour>
    <contour>
      <point x="300" y="688" type="line"/>
      <point x="136" y="277" type="line"/>
      <point x="135" y="273" type="line"/>
      <point x="27" y="0" type="line"/>
      <point x="15" y="0" type="line"/>
      <point x="300" y="715" type="line"/>
      <point x="585" y="0" type="line"/>
      <point x="573" y="0" type="line"/>
      <point x="466" y="273" type="line"/>
      <point x="465" y="276" type="line"/>
    </contour>
    <contour>
      <point x="142" y="925" type="curve"/>
      <point x="152" y="925" type="line"/>
      <point x="152" y="859"/>
      <point x="208" y="795"/>
      <point x="300" y="795" type="curve" smooth="yes"/>
      <point x="392" y="795"/>
      <point x="448" y="859"/>
      <point x="448" y="925" type="curve"/>
      <point x="458" y="925" type="line"/>
      <point x="458" y="856"/>
      <point x="405" y="785"/>
      <point x="300" y="785" type="curve" smooth="yes"/>
      <point x="195" y="785"/>
      <point x="142" y="856"/>
    </contour>
  </outline>
</glyph>
<glyph name="Cdotaccent" format="2">
  <advance width="685"/>
  <unicode hex="010A"/>
  <outline>
    <contour>
      <point x="62" y="350" type="curve" smooth="yes"/>
      <point x="62" y="150"/>
      <point x="193" y="4"/>
      <point x="380" y="4" type="curve" smooth="yes"/>
      <point x="479" y="4"/>
      <point x="547" y="31"/>
      <point x="605" y="88" type="curve"/>
      <point x="605" y="72" type="line"/>
      <point x="546" y="20"/>
      <point x="482" y="-8"/>
      <point x="380" y="-8" type="curve" smooth="yes"/>
      <point x="186" y="-8"/>
      <point x="50" y="141"/>
      <point x="50" y="350" type="curve" smooth="yes"/>
      <point x="50" y="559"/>
      <point x="186" y="708"/>
      <point x="380" y="708" type="curve" smooth="yes"/>
      <point x="482" y="708"/>
      <point x="546" y="680"/>
      <point x="605" y="628" type="curve"/>
      <point x="605" y="613" type="line"/>
      <point x="549" y="669"/>
      <point x="474" y="696"/>
      <point x="380" y="696" type="curve" smooth="yes"/>
      <point x="194" y="696"/>
      <point x="62" y="553"/>
    </contour>
    <contour>
      <point x="369" y="789" type="curve" smooth="yes"/>
      <point x="369" y="796"/>
      <point x="374" y="800"/>
      <point x="380" y="800" type="curve" smooth="yes"/>
      <point x="386" y="800"/>
      <point x="391" y="796"/>
      <point x="391" y="789" type="curve" smooth="yes"/>
      <point x="391" y="782"/>
      <point x="386" y="778"/>
      <point x="380" y="778" type="curve" smooth="yes"/>
      <point x="374" y="778"/>
      <point x="369" y="782"/>
    </contour>
  </outline>
</glyph>
<glyph name="Dcroat" format="1">
  <advance width="680"/>
  <unicode hex="0110"/>
  <outline>
    <contour>
      <point x="5" y="345" type="line"/>
      <point x="5" y="355" type="line"/>
      <point x="305" y="355" type="line"/>
      <point x="305" y="345" type="line"/>
    </contour>
    <contour>
      <point x="90" y="700" type="line"/>
      <point x="101" y="700" type="line"/>
      <point x="101" y="0" type="line"/>
      <point x="90" y="0" type="line"/>
    </contour>
    <contour>
      <point x="250" y="0" type="curve" smooth="yes"/>
      <point x="95" y="0" type="line"/>
      <point x="95" y="11" type="line"/>
      <point x="250" y="11" type="line" smooth="yes"/>
      <point x="448" y="11"/>
      <point x="574" y="147"/>
      <point x="574" y="350" type="curve" smooth="yes"/>
      <point x="574" y="553"/>
      <point x="448" y="689"/>
      <point x="250" y="689" type="curve" smooth="yes"/>
      <point x="95" y="689" type="line"/>
      <point x="95" y="700" type="line"/>
      <point x="250" y="700" type="line" smooth="yes"/>
      <point x="454" y="700"/>
      <point x="585" y="559"/>
      <point x="585" y="350" type="curve" smooth="yes"/>
      <point x="585" y="141"/>
      <point x="454" y="0"/>
    </contour>
  </outline>
</glyph>
<glyph name="dcroat" format="2">
  <advance width="541"/>
  <unicode hex="0111"/>
  <outline>
    <contour>
      <point x="295" y="655" type="line"/>
      <point x="295" y="665" type="line"/>
      <point x="595" y="665" type="line"/>
      <point x="595" y="655" type="line"/>
    </contour>
    <contour>
      <point x="451" y="780" type="line"/>
      <point x="461" y="780" type="line"/>
      <point x="461" y="0" type="line"/>
      <point x="451" y="0" type="line"/>
    </contour>
    <contour>
      <point x="45" y="230" type="curve" smooth="yes"/>
      <point x="45" y="379"/>
      <point x="138" y="470"/>
      <point x="258" y="470" type="curve" smooth="yes"/>
      <point x="373" y="470"/>
      <point x="456" y="359"/>
      <point x="456" y="230" type="curve" smooth="yes"/>
      <point x="456" y="101"/>
      <point x="373" y="-10"/>
      <point x="258" y="-10" type="curve" smooth="yes"/>
      <point x="138" y="-10"/>
      <point x="45" y="81"/>
    </contour>
    <contour>
      <point x="55" y="230" type="curve" smooth="yes"/>
      <point x="55" y="89"/>
      <point x="146" y="0"/>
      <point x="261" y="0" type="curve" smooth="yes"/>
      <point x="376" y="0"/>
      <point x="451" y="124"/>
      <point x="451" y="230" type="curve" smooth="yes"/>
      <point x="451" y="336"/>
      <point x="376" y="460"/>
      <point x="261" y="460" type="curve" smooth="yes"/>
      <point x="146" y="460"/>
      <point x="55" y="371"/>
    </contour>
  </outline>
</glyph>
<glyph name="Emacron" format="1">
  <advance width="510"/>
  <unicode hex="0112"/>
  <outline>
    <contour>
      <point x="92" y="0" type="line"/>
      <point x="92" y="10" type="line"/>
      <point x="430" y="10" type="line"/>
      <point x="430" y="0" type="line"/>
    </contour>
    <contour>
      <point x="92" y="690" type="line"/>
      <point x="92" y="700" type="line"/>
      <point x="430" y="700" type="line"/>
      <point x="430" y="690" type="line"/>
    </contour>
    <contour>
      <point x="92" y="384" type="line"/>
      <point x="92" y="394" type="line"/>
      <point x="410" y="394" type="line"/>
      <point x="410" y="384" type="line"/>
    </contour>
    <contour>
      <point x="90" y="700" type="line"/>
      <point x="101" y="700" type="line"/>
      <point x="101" y="0" type="line"/>
      <point x="90" y="0" type="line"/>
    </contour>
    <contour>
      <point x="105" y="835" type="line"/>
      <point x="105" y="845" type="line"/>
      <point x="455" y="845" type="line"/>
      <point x="455" y="835" type="line"/>
    </contour>
  </outline>
</glyph>
<glyph name="Eogonek" format="2">
  <advance width="510"/>
  <unicode hex="0118"/>
  <outline>
    <contour>
      <point x="92" y="0" type="line"/>
      <point x="92" y="10" type="line"/>
      <point x="430" y="10" type="line"/>
      <point x="430" y="0" type="line"/>
    </contour>
    <contour>
      <point x="92" y="690" type="line"/>
      <point x="92" y="700" type="line"/>
      <point x="430" y="700" type="line"/>
      <point x="430" y="690" type="line"/>
    </contour>
    <contour>
      <point x="92" y="384" type="line"/>
      <point x="92" y="394" type="line"/>
      <point x="410" y="394" type="line"/>
      <point x="410" y="384" type="line"/>
    </contour>
    <contour>
      <point x="90" y="700" type="line"/>
      <point x="101" y="700" type="line"/>
      <point x="101" y="0" type="line"/>
      <point x="90" y="0" type="line"/>
    </contour>
    <contour>
      <point x="464" y="-173" type="curve"/>
      <point x="471" y="-180" type="line"/>
      <point x="456" y="-200"/>
      <point x="416" y="-220"/>
      <point x="373" y="-220" type="curve" smooth="yes"/>
      <point x="309" y="-220"/>
      <point x="270" y="-189"/>
      <point x="270" y="-140" type="curve" smooth="yes"/>
      <point x="270" y="-71"/>
      <point x="353" y="-26"/>
      <point x="423" y="10" type="curve"/>
      <point x="430" y="0" type="line"/>
      <point x="362" y="-32"/>
      <point x="280" y="-83"/>
      <point x="280" y="-140" type="curve" smooth="yes"/>
      <point x="280" y="-186"/>
      <point x="323" y="-210"/>
      <point x="373" y="-210" type="curve" smooth="yes"/>
      <point x="413" y="-210"/>
      <point x="449" y="-191"/>
    </contour>
  </outline>
</glyph>
<glyph name="gcircumflex" format="1">
  <advance width="541"/>
  <unicode hex="011D"/>
  <outline>
    <contour>
      <point x="60" y="-30" type="curve"/>
      <point x="70" y="-30" type="line"/>
      <point x="70" y="-146"/>
      <point x="145" y="-220"/>
      <point x="252" y="-220" type="curve" smooth="yes"/>
      <point x="359" y="-220"/>
      <point x="451" y="-145"/>
      <point x="451" y="10" type="curve" smooth="yes"/>
      <point x="451" y="460" type="line"/>
      <point x="461" y="460" type="line"/>
      <point x="461" y="10" type="line" smooth="yes"/>
      <point x="461" y="-149"/>
      <point x="367" y="-230"/>
      <point x="252" y="-230" type="curve" smooth="yes"/>
      <point x="137" y="-230"/>
      <point x="60" y="-149"/>
    </contour>
    <contour>
      <point x="45" y="230" type="curve" smooth="yes"/>
      <point x="45" y="377"/>
      <point x="138" y="470"/>
      <point x="258" y="470" type="curve" smooth="yes"/>
      <point x="381" y="470"/>
      <point x="456" y="349"/>
      <point x="456" y="230" type="curve" smooth="yes"/>
      <point x="456" y="111"/>
      <point x="381" y="-10"/>
      <point x="258" y="-10" type="curve" smooth="yes"/>
      <point x="138" y="-10"/>
      <point x="45" y="83"/>
    </contour>
    <contour>
      <point x="55" y="230" type="curve" smooth="yes"/>
      <point x="55" y="89"/>
      <point x="145" y="0"/>
      <point x="261" y="0" type="curve" smooth="yes"/>
      <point x="371" y="0"/>
      <point x="451" y="114"/>
      <point x="451" y="235" type="curve" smooth="yes"/>
      <point x="451" y="341"/>
      <point x="371" y="460"/>
      <point x="261" y="460" type="curve" smooth="yes"/>
      <point x="145" y="460"/>
      <point x="55" y="371"/>
    </contour>
    <contour>
      <point x="258" y="665" type="line"/>
      <point x="105" y="530" type="line"/>
      <point x="98" y="537" type="line"/>
      <point x="258" y="677" type="line"/>
      <point x="418" y="537" type="line"/>
      <point x="411" y="530" type="line"/>
    </contour>
  </outline>
</glyph>
<glyph name="Gbreve" format="1">
  <advance width="765"/>
  <unicode hex="011E"/>
  <outline>
    <contour>
      <point x="420" y="330" type="line"/>
      <point x="420" y="340" type="line"/>
      <point x="710" y="340" type="line"/>
      <point x="710" y="156"/>
      <point x="584" y="-8"/>
      <point x="390" y="-8" type="curve" smooth="yes"/>
      <point x="196" y="-8"/>
      <point x="50" y="141"/>
      <point x="50" y="350" type="curve" smooth="yes"/>
      <point x="50" y="559"/>
      <point x="196" y="708"/>
      <point x="390" y="708" type="curve" smooth="yes"/>
      <point x="519" y="708"/>
      <point x="608" y="643"/>
      <point x="668" y="556" type="curve"/>
      <point x="658" y="550" type="line"/>
      <point x="608" y="633"/>
      <point x="512" y="697"/>
      <point x="390" y="697" type="curve" smooth="yes"/>
      <point x="199" y="697"/>
      <point x="61" y="553"/>
      <point x="61" y="350" type="curve" smooth="yes"/>
      <point x="61" y="150"/>
      <point x="198" y="3"/>
      <point x="390" y="3" type="curve" smooth="yes"/>
      <point x="574" y="3"/>
      <point x="695" y="155"/>
      <point x="699" y="330" type="curve"/>
    </contour>
    <contour>
      <point x="232" y="908" type="curve"/>
      <point x="242" y="908" type="line"/>
      <point x="242" y="842"/>
      <point x="298" y="778"/>
      <point x="390" y="778" type="curve" smooth="yes"/>
      <point x="482" y="778"/>
      <point x="538" y="842"/>
      <point x="538" y="908" type="curve"/>
      <point x="548" y="908" type="line"/>
      <point x="548" y="839"/>
      <point x="495" y="768"/>
      <point x="390" y="768" type="curve" smooth="yes"/>
      <point x="285" y="768"/>
      <point x="232" y="839"/>
    </contour>
  </outline>
</glyph>
<glyph name="gbreve" format="2">
  <advance width="541"/>
  <unicode hex="011F"/>
  <outline>
    <contour>
      <point x="60" y="-30" type="curve"/>
      <point x="70" y="-30" type="line"/>
      <point x="70" y="-146"/>
      <point x="145" y="-220"/>
      <point x="252" y="-220" type="curve" smooth="yes"/>
      <point x="359" y="-220"/>
      <point x="451" y="-145"/>
      <point x="451" y="10" type="curve" smooth="yes"/>
      <point x="451" y="460" type="line"/>
      <point x="461" y="460" type="line"/>
      <point x="461" y="10" type="line" smooth="yes"/>
      <point x="461" y="-149"/>
      <point x="367" y="-230"/>
      <point x="252" y="-230" type="curve" smooth="yes"/>
      <point x="137" y="-230"/>
      <point x="60" y="-149"/>
    </contour>
    <contour>
      <point x="45" y="230" type="curve" smooth="yes"/>
      <point x="45" y="377"/>
      <point x="138" y="470"/>
      <point x="258" y="470" type="curve" smooth="yes"/>
      <point x="381" y="470"/>
      <point x="456" y="349"/>
      <point x="456" y="230" type="curve" smooth="yes"/>
      <point x="456" y="111"/>
      <point x="381" y="-10"/>
      <point x="258" y="-10" type="curve" smooth="yes"/>
      <point x="138" y="-10"/>
      <point x="45" y="83"/>
    </contour>
    <contour>
      <point x="55" y="230" type="curve" smooth="yes"/>
      <point x="55" y="89"/>
      <point x="145" y="0"/>
      <point x="261" y="0" type="curve" smooth="yes"/>
      <point x="371" y="0"/>
      <point x="451" y="114"/>
      <point x="451" y="235" type="curve" smooth="yes"/>
      <point x="451" y="341"/>
      <point x="371" y="460"/>
      <point x="261" y="460" type="curve" smooth="yes"/>
      <point x="145" y="460"/>
      <point x="55" y="371"/>
    </contour>
    <contour>
      <point x="100" y="670" type="curve"/>
      <point x="110" y="670" type="line"/>
      <point x="110" y="604"/>
      <point x="166" y="540"/>
      <point x="258" y="540" type="curve" smooth="yes"/>
      <point x="350" y="540"/>
      <point x="406" y="604"/>
      <point x="406" y="670" type="curve"/>
      <point x="416" y="670" type="line"/>
      <point x="416" y="601"/>
      <point x="363" y="530"/>
      <point x="258" y="530" type="curve" smooth="yes"/>
      <point x="153" y="530"/>
      <point x="100" y="601"/>
    </contour>
  </outline>
</glyph>
<glyph name="Hbar" format="2">
  <advance width="647"/>
  <unicode hex="0126"/>
  <outline>
    <contour>
      <point x="93" y="377" type="line"/>
      <point x="93" y="387" type="line"/>
      <point x="553" y="387" type="line"/>
      <point x="553" y="377" type="line"/>
    </contour>
    <contour>
      <point x="546" y="700" type="line"/>
      <point x="557" y="700" type="line"/>
      <point x="557" y="0" type="line"/>
      <point x="546" y="0" type="line"/>
    </contour>
    <contour>
      <point x="90" y="700" type="line"/>
      <point x="101" y="700" type="line"/>
      <point x="101" y="0" type="line"/>
      <point x="90" y="0" type="line"/>
    </contour>
    <contour>
      <point x="5" y="605" type="line"/>
      <point x="5" y="615" type="line"/>
      <point x="642" y="615" type="line"/>
      <point x="642" y="605" type="line"/>
    </contour>
  </outline>
</glyph>
<glyph name="Itilde" format="2">
  <advance width="180"/>
  <unicode hex="0128"/>
  <outline>
    <contour>
      <point x="85" y="700" type="line"/>
      <point x="95" y="700" type="line"/>
      <point x="95" y="0" type="line"/>
      <point x="85" y="0" type="line"/>
    </contour>
    <contour>
      <point x="-25" y="831" type="line"/>
      <point x="-25" y="860"/>
      <point x="-8" y="889"/>
      <point x="37" y="889" type="curve" smooth="yes"/>
      <point x="92" y="889"/>
      <point x="107" y="842"/>
      <point x="161" y="842" type="curve" smooth="yes"/>
      <point x="190" y="842"/>
      <point x="202" y="858"/>
      <point x="217" y="890" type="curve"/>
      <point x="226" y="887" type="line"/>
      <point x="210" y="850"/>
      <point x="190" y="834"/>
      <point x="160" y="834" type="curve" smooth="yes"/>
      <point x="105" y="834"/>
      <point x="84" y="881"/>
      <point x="39" y="881" type="curve" smooth="yes"/>
      <point x="-2" y="881"/>
      <point x="-16" y="855"/>
      <point x="-16" y="830" type="curve"/>
    </contour>
  </outline>
</glyph>
<glyph name="IJ" format="1">
  <advance width="490"/>
  <unicode hex="0132"/>
  <outline>
    <contour>
      <point x="123" y="-158" type="line"/>
      <point x="147" y="-182"/>
      <point x="187" y="-209"/>
      <point x="233" y="-209" type="curve" smooth="yes"/>
      <point x="322" y="-209"/>
      <point x="346" y="-166"/>
      <point x="346" y="-50" type="curve" smooth="yes"/>
      <point x="346" y="700" type="line"/>
      <point x="357" y="700" type="line"/>
      <point x="357" y="-60" type="line" smooth="yes"/>
      <point x="357" y="-169"/>
      <point x="328" y="-220"/>
      <point x="234" y="-220" type="curve" smooth="yes"/>
      <point x="181" y="-220"/>
      <point x="131" y="-185"/>
      <point x="116" y="-165" type="curve"/>
    </contour>
    <contour>
      <point x="85" y="700" type="line"/>
      <point x="95" y="700" type="line"/>
      <point x="95" y="0" type="line"/>
      <point x="85" y="0" type="line"/>
    </contour>
  </outline>
</glyph>
<glyph name="ij" format="2">
  <advance width="510"/>
  <unicode hex="0133"/>
  <outline>
    <contour>
      <point x="335" y="695" type="curve" smooth="yes"/>
      <point x="335" y="701"/>
      <point x="338" y="705"/>
      <point x="345" y="705" type="curve" smooth="yes"/>
      <point x="352" y="705"/>
      <point x="355" y="701"/>
      <point x="355" y="695" type="curve" smooth="yes"/>
      <point x="355" y="689"/>
      <point x="352" y="685"/>
      <point x="345" y="685" type="curve" smooth="yes"/>
      <point x="338" y="685"/>
      <point x="335" y="689"/>
    </contour>
    <contour>
      <point x="164" y="-165" type="line"/>
      <point x="180" y="-185"/>
      <point x="205" y="-210"/>
      <point x="242" y="-210" type="curve" smooth="yes"/>
      <point x="322" y="-210"/>
      <point x="340" y="-138"/>
      <point x="340" y="-82" type="curve" smooth="yes"/>
      <point x="340" y="460" type="line"/>
      <point x="350" y="460" type="line"/>
      <point x="350" y="-82" type="line" smooth="yes"/>
      <point x="350" y="-151"/>
      <point x="326" y="-220"/>
      <point x="242" y="-220" type="curve" smooth="yes"/>
      <point x="199" y="-220"/>
      <point x="172" y="-192"/>
      <point x="157" y="-172" type="curve"/>
    </contour>
    <contour>
      <point x="85" y="695" type="curve" smooth="yes"/>
      <point x="85" y="701"/>
      <point x="88" y="705"/>
      <point x="95" y="705" type="curve" smooth="yes"/>
      <point x="102" y="705"/>
      <point x="105" y="701"/>
      <point x="105" y="695" type="curve" smooth="yes"/>
      <point x="105" y="689"/>
      <point x="102" y="685"/>
      <point x="95" y="685" type="curve" smooth="yes"/>
      <point x="88" y="685"/>
      <point x="85" y="689"/>
    </contour>
    <contour>
      <point x="90" y="460" type="line"/>
      <point x="100" y="460" type="line"/>
      <point x="100" y="0" type="line"/>
      <point x="90" y="0" type="line"/>
    </contour>
  </outline>
</glyph>
<glyph name="jcircumflex" format="1">
  <advance width="180"/>
  <unicode hex="0135"/>
  <outline>
    <contour>
      <point x="-96" y="-165" type="line"/>
      <point x="-80" y="-185"/>
      <point x="-55" y="-210"/>
      <point x="-18" y="-210" type="curve" smooth="yes"/>
      <point x="62" y="-210"/>
      <point x="80" y="-138"/>
      <point x="80" y="-82" type="curve" smooth="yes"/>
      <point x="80" y="460" type="line"/>
      <point x="90" y="460" type="line"/>
      <point x="90" y="-82" type="line" smooth="yes"/>
      <point x="90" y="-151"/>
      <point x="66" y="-220"/>
      <point x="-18" y="-220" type="curve" smooth="yes"/>
      <point x="-61" y="-220"/>
      <point x="-88" y="-192"/>
      <point x="-103" y="-172" type="curve"/>
    </contour>
    <contour>
      <point x="85" y="665" type="line"/>
      <point x="-68" y="530" type="line"/>
      <point x="-75" y="537" type="line"/>
      <point x="85" y="677" type="line"/>
      <point x="245" y="537" type="line"/>
      <point x="238" y="530" type="line"/>
    </contour>
  </outline>
</glyph>
<glyph name="uni0137" format="1">
  <advance width="372"/>
  <unicode hex="0137"/>
  <outline>
    <contour>
      <point x="80" y="780" type="line"/>
      <point x="90" y="780" type="line"/>
      <point x="90" y="0" type="line"/>
      <point x="80" y="0" type="line"/>
    </contour>
    <contour>
      <point x="328" y="460" type="line"/>
      <point x="344" y="460" type="line"/>
      <point x="102" y="270" type="line"/>
      <point x="362" y="0" type="line"/>
      <point x="348" y="0" type="line"/>
      <point x="88" y="270" type="line"/>
    </contour>
    <contour>
      <point x="268" y="-60" type="line"/>
      <point x="279" y="-65" type="line"/>
      <point x="169" y="-315" type="line"/>
      <point x="163" y="-313" type="line"/>
    </contour>
  </outline>
</glyph>
<glyph name="Lacute" format="1">
  <advance width="430"/>
  <unicode hex="0139"/>
  <outline>
    <contour>
      <point x="90" y="700" type="line"/>
      <point x="100" y="700" type="line"/>
      <point x="100" y="10" type="line"/>
      <point x="410" y="10" type="line"/>
      <point x="410" y="0" type="line"/>
      <point x="90" y="0" type="line"/>
    </contour>
    <contour>
      <point x="426" y="925" type="line"/>
      <point x="252" y="768" type="line"/>
      <point x="248" y="773" type="line"/>
      <point x="418" y="933" type="line"/>
    </contour>
  </outline>
</glyph>
<glyph name="uni013B" format="1">
  <advance width="430"/>
  <unicode hex="013B"/>
  <outline>
    <contour>
      <point x="90" y="700" type="line"/>
      <point x="100" y="700" type="line"/>
      <point x="100" y="10" type="line"/>
      <point x="410" y="10" type="line"/>
      <point x="410" y="0" type="line"/>
      <point x="90" y="0" type="line"/>
    </contour>
    <contour>
      <point x="257" y="-60" type="line"/>
      <point x="268" y="-65" type="line"/>
      <point x="158" y="-315" type="line"/>
      <point x="152" y="-313" type="line"/>
    </contour>
  </outline>
</glyph>
<glyph name="uni013C" format="2">
  <advance width="180"/>
  <unicode hex="013C"/>
  <outline>
    <contour>
      <point x="85" y="780" type="line"/>
      <point x="95" y="780" type="line"/>
      <point x="95" y="0" type="line"/>
      <point x="85" y="0" type="line"/>
    </contour>
    <contour>
      <point x="117" y="-60" type="line"/>
      <point x="128" y="-65" type="line"/>
      <point x="18" y="-315" type="line"/>
      <point x="12" y="-313" type="line"/>
    </contour>
  </outline>
</glyph>
<glyph name="Lcaron" format="1">
  <advance width="430"/>
  <unicode hex="013D"/>
  <outline>
    <contour>
      <point x="90" y="700" type="line"/>
      <point x="100" y="700" type="line"/>
      <point x="100" y="10" type="line"/>
      <point x="410" y="10" type="line"/>
      <point x="410" y="0" type="line"/>
      <point x="90" y="0" type="line"/>
    </contour>
    <contour>
      <point x="345" y="708" type="line"/>
      <point x="356" y="703" type="line"/>
      <point x="246" y="453" type="line"/>
      <point x="240" y="455" type="line"/>
    </contour>
  </outline>
</glyph>
<glyph name="Lslash" format="1">
  <advance width="375"/>
  <unicode hex="0141"/>
  <outline>
    <contour>
      <point x="-9" y="387" type="line"/>
      <point x="-15" y="395" type="line"/>
      <point x="255" y="565" type="line"/>
      <point x="261" y="557" type="line"/>
    </contour>
    <contour>
      <point x="80" y="700" type="line"/>
      <point x="91" y="700" type="line"/>
      <point x="91" y="10" type="line"/>
      <point x="365" y="10" type="line"/>
      <point x="365" y="0" type="line"/>
      <point x="80" y="0" type="line"/>
    </contour>
  </outline>
</glyph>
<glyph name="uni0145" format="1">
  <advance width="665"/>
  <unicode hex="0145"/>
  <outline>
    <contour>
      <point x="342" y="-45" type="line"/>
      <point x="353" y="-50" type="line"/>
      <point x="243" y="-300" type="line"/>
      <point x="237" y="-298" type="line"/>
    </contour>
    <contour>
      <point x="584" y="700" type="line"/>
      <point x="595" y="700" type="line"/>
      <point x="595" y="-15" type="line"/>
      <point x="61" y="678" type="line"/>
      <point x="61" y="0" type="line"/>
      <point x="50" y="0" type="line"/>
      <point x="50" y="715" type="line"/>
      <point x="584" y="17" type="line"/>
    </contour>
  </outline>
</glyph>
<glyph name="oe" format="2">
  <advance width="926"/>
  <unicode hex="0153"/>
  <outline>
    <contour>
      <point x="870" y="250" type="line" smooth="yes"/>
      <point x="870" y="356"/>
      <point x="788" y="460"/>
      <point x="668" y="460" type="curve" smooth="yes"/>
      <point x="538" y="460"/>
      <point x="458" y="348"/>
      <point x="458" y="232" type="curve"/>
      <point x="458" y="232" type="line"/>
      <point x="458" y="96"/>
      <point x="548" y="0"/>
      <point x="668" y="0" type="curve" smooth="yes"/>
      <point x="763" y="0"/>
      <point x="826" y="47"/>
      <point x="865" y="113" type="curve"/>
      <point x="873" y="106" type="line"/>
      <point x="827" y="36"/>
      <point x="767" y="-10"/>
      <point x="668" y="-10" type="curve" smooth="yes"/>
      <point x="533" y="-10"/>
      <point x="452" y="101"/>
      <point x="452" y="230" type="curve" smooth="yes"/>
      <point x="452" y="247"/>
      <point x="453" y="263"/>
      <point x="456" y="279" type="curve" smooth="yes"/>
      <point x="475" y="392"/>
      <point x="559" y="470"/>
      <point x="668" y="470" type="curve" smooth="yes"/>
      <point x="778" y="470"/>
      <point x="881" y="378"/>
      <point x="881" y="253" type="curve" smooth="yes"/>
      <point x="881" y="245"/>
      <point x="880" y="236"/>
      <point x="879" y="228" type="curve"/>
      <point x="869" y="229" type="line"/>
    </contour>
    <contour>
      <point x="455" y="228" type="line"/>
      <point x="455" y="238" type="line"/>
      <point x="879" y="238" type="line"/>
      <point x="879" y="228" type="line"/>
    </contour>
    <contour>
      <point x="45" y="230" type="curve" smooth="yes"/>
      <point x="45" y="379"/>
      <point x="138" y="470"/>
      <point x="253" y="470" type="curve" smooth="yes"/>
      <point x="358" y="470"/>
      <point x="458" y="379"/>
      <point x="458" y="230" type="curve" smooth="yes"/>
      <point x="458" y="81"/>
      <point x="358" y="-10"/>
      <point x="253" y="-10" type="curve" smooth="yes"/>
      <point x="138" y="-10"/>
      <point x="45" y="81"/>
    </contour>
    <contour>
      <point x="55" y="230" type="curve" smooth="yes"/>
      <point x="55" y="89"/>
      <point x="142" y="0"/>
      <point x="256" y="0" type="curve" smooth="yes"/>
      <point x="356" y="0"/>
      <point x="451" y="94"/>
      <point x="451" y="230" type="curve" smooth="yes"/>
      <point x="451" y="366"/>
      <point x="356" y="460"/>
      <point x="256" y="460" type="curve" smooth="yes"/>
      <point x="142" y="460"/>
      <point x="55" y="371"/>
    </contour>
  </outline>
</glyph>
<glyph name="Racute" format="1">
  <advance width="468"/>
  <unicode hex="0154"/>
  <outline>
    <contour>
      <point x="199" y="317" type="line"/>
      <point x="211" y="317" type="line"/>
      <point x="433" y="0" type="line"/>
      <point x="419" y="0" type="line"/>
    </contour>
    <contour>
      <point x="90" y="700" type="line"/>
      <point x="101" y="700" type="line"/>
      <point x="101" y="0" type="line"/>
      <point x="90" y="0" type="line"/>
    </contour>
    <contour>
      <point x="92" y="689" type="line"/>
      <point x="92" y="700" type="line"/>
      <point x="205" y="700" type="line" smooth="yes"/>
      <point x="340" y="700"/>
      <point x="441" y="636"/>
      <point x="441" y="507" type="curve" smooth="yes"/>
      <point x="441" y="378"/>
      <point x="340" y="314"/>
      <point x="205" y="314" type="curve" smooth="yes"/>
      <point x="92" y="314" type="line"/>
      <point x="92" y="324" type="line"/>
      <point x="205" y="324" type="line" smooth="yes"/>
      <point x="337" y="324"/>
      <point x="430" y="384"/>
      <point x="430" y="507" type="curve" smooth="yes"/>
      <point x="430" y="630"/>
      <point x="336" y="689"/>
      <point x="205" y="689" type="curve" smooth="yes"/>
    </contour>
    <contour>
      <point x="363" y="925" type="line"/>
      <point x="190" y="768" type="line"/>
      <point x="185" y="773" type="line"/>
      <point x="355" y="933" type="line"/>
    </contour>
  </outline>
</glyph>
<glyph name="scircumflex" format="2">
  <advance width="403"/>
  <unicode hex="015D"/>
  <outline>
    <contour>
      <point x="50" y="147" type="line"/>
      <point x="64" y="76"/>
      <point x="101" y="0"/>
      <point x="198" y="0" type="curve" smooth="yes"/>
      <point x="270" y="0"/>
      <point x="322" y="45"/>
      <point x="322" y="117" type="curve" smooth="yes"/>
      <point x="322" y="183"/>
      <point x="265" y="211"/>
      <point x="197" y="231" type="curve" smooth="yes"/>
      <point x="124" y="252"/>
      <point x="67" y="272"/>
      <point x="67" y="359" type="curve" smooth="yes"/>
      <point x="67" y="430"/>
      <point x="125" y="468"/>
      <point x="197" y="468" type="curve" smooth="yes"/>
      <point x="277" y="468"/>
      <point x="313" y="419"/>
      <point x="331" y="368" type="curve"/>
      <point x="321" y="365" type="line"/>
      <point x="304" y="413"/>
      <point x="269" y="458"/>
      <point x="197" y="458" type="curve" smooth="yes"/>
      <point x="132" y="458"/>
      <point x="77" y="424"/>
      <point x="77" y="359" type="curve" smooth="yes"/>
      <point x="77" y="278"/>
      <point x="133" y="260"/>
      <point x="203" y="240" type="curve" smooth="yes"/>
      <point x="269" y="221"/>
      <point x="332" y="189"/>
      <point x="332" y="117" type="curve" smooth="yes"/>
      <point x="332" y="38"/>
      <point x="277" y="-10"/>
      <point x="198" y="-10" type="curve" smooth="yes"/>
      <point x="93" y="-10"/>
      <point x="54" y="69"/>
      <point x="40" y="144" type="curve"/>
    </contour>
    <contour>
      <point x="197" y="665" type="line"/>
      <point x="44" y="530" type="line"/>
      <point x="37" y="537" type="line"/>
      <point x="197" y="677" type="line"/>
      <point x="357" y="537" type="line"/>
      <point x="350" y="530" type="line"/>
    </contour>
  </outline>
</glyph>
<glyph name="Ubreve" format="2">
  <advance width="576"/>
  <unicode hex="016C"/>
  <outline>
    <contour>
      <point x="85" y="700" type="line"/>
      <point x="96" y="700" type="line"/>
      <point x="96" y="220" type="line" smooth="yes"/>
      <point x="96" y="84"/>
      <point x="168" y="1"/>
      <point x="288" y="1" type="curve" smooth="yes"/>
      <point x="408" y="1"/>
      <point x="480" y="84"/>
      <point x="480" y="220" type="curve" smooth="yes"/>
      <point x="480" y="700" type="line"/>
      <point x="491" y="700" type="line"/>
      <point x="491" y="220" type="line" smooth="yes"/>
      <point x="491" y="81"/>
      <point x="423" y="-10"/>
      <point x="288" y="-10" type="curve" smooth="yes"/>
      <point x="153" y="-10"/>
      <point x="85" y="81"/>
      <point x="85" y="220" type="curve" smooth="yes"/>
    </contour>
    <contour>
      <point x="130" y="908" type="curve"/>
      <point x="140" y="908" type="line"/>
      <point x="140" y="842"/>
      <point x="196" y="778"/>
      <point x="288" y="778" type="curve" smooth="yes"/>
      <point x="380" y="778"/>
      <point x="436" y="842"/>
      <point x="436" y="908" type="curve"/>
      <point x="446" y="908" type="line"/>
      <point x="446" y="839"/>
      <point x="393" y="768"/>
      <point x="288" y="768" type="curve" smooth="yes"/>
      <point x="183" y="768"/>
      <point x="130" y="839"/>
    </contour>
  </outline>
</glyph>
<glyph name="Uring" format="2">
  <advance width="576"/>
  <unicode hex="016E"/>
  <outline>
    <contour>
      <point x="85" y="700" type="line"/>
      <point x="96" y="700" type="line"/>
      <point x="96" y="220" type="line" smooth="yes"/>
      <point x="96" y="84"/>
      <point x="168" y="1"/>
      <point x="288" y="1" type="curve" smooth="yes"/>
      <point x="408" y="1"/>
      <point x="480" y="84"/>
      <point x="480" y="220" type="curve" smooth="yes"/>
      <point x="480" y="700" type="line"/>
      <point x="491" y="700" type="line"/>
      <point x="491" y="220" type="line" smooth="yes"/>
      <point x="491" y="81"/>
      <point x="423" y="-10"/>
      <point x="288" y="-10" type="curve" smooth="yes"/>
      <point x="153" y="-10"/>
      <point x="85" y="81"/>
      <point x="85" y="220" type="curve" smooth="yes"/>
    </contour>
    <contour>
      <point x="186" y="868" type="curve" smooth="yes"/>
      <point x="186" y="928"/>
      <point x="236" y="968"/>
      <point x="288" y="968" type="curve" smooth="yes"/>
      <point x="340" y="968"/>
      <point x="390" y="928"/>
      <point x="390" y="868" type="curve" smooth="yes"/>
      <point x="390" y="808"/>
      <point x="340" y="768"/>
      <point x="288" y="768" type="curve" smooth="yes"/>
      <point x="236" y="768"/>
      <point x="186" y="808"/>
    </contour>
    <contour>
      <point x="196" y="868" type="curve" smooth="yes"/>
      <point x="196" y="815"/>
      <point x="240" y="778"/>
      <point x="288" y="778" type="curve" smooth="yes"/>
      <point x="336" y="778"/>
      <point x="380" y="815"/>
      <point x="380" y="868" type="curve" smooth="yes"/>
      <point x="380" y="921"/>
      <point x="336" y="958"/>
      <point x="288" y="958" type="curve" smooth="yes"/>
      <point x="240" y="958"/>
      <point x="196" y="921"/>
    </contour>
  </outline>
</glyph>
<glyph name="Ycircumflex" format="2">
  <advance width="507"/>
  <unicode hex="0176"/>
  <outline>
    <contour>
      <point x="479" y="700" type="line"/>
      <point x="492" y="700" type="line"/>
      <point x="254" y="267" type="line"/>
      <point x="254" y="0" type="line"/>
      <point x="243" y="0" type="line"/>
      <point x="243" y="266" type="line"/>
      <point x="15" y="700" type="line"/>
      <point x="28" y="700" type="line"/>
      <point x="248" y="281" type="line"/>
    </contour>
    <contour>
      <point x="253.5" y="903" type="line"/>
      <point x="100.5" y="768" type="line"/>
      <point x="93.5" y="775" type="line"/>
      <point x="253.5" y="915" type="line"/>
      <point x="413.5" y="775" type="line"/>
      <point x="406.5" y="768" type="line"/>
    </contour>
  </outline>
</glyph>
<glyph name="zacute" format="2">
  <advance width="430"/>
  <unicode hex="017A"/>
  <outline>
    <contour>
      <point x="379" y="450" type="line"/>
      <point x="40" y="450" type="line"/>
      <point x="40" y="460" type="line"/>
      <point x="400" y="460" type="line"/>
      <point x="41" y="10" type="line"/>
      <point x="410" y="10" type="line"/>
      <point x="410" y="0" type="line"/>
      <point x="20" y="0" type="line"/>
    </contour>
    <contour>
      <point x="366" y="687" type="line"/>
      <point x="192" y="530" type="line"/>
      <point x="188" y="535" type="line"/>
      <point x="358" y="695" type="line"/>
    </contour>
  </outline>
</glyph>
<glyph name="Zdotaccent" format="2">
  <advance width="535"/>
  <unicode hex="017B"/>
  <outline>
    <contour>
      <point x="40" y="689" type="line"/>
      <point x="40" y="700" type="line"/>
      <point x="520" y="700" type="line"/>
      <point x="42" y="11" type="line"/>
      <point x="510" y="11" type="line"/>
      <point x="510" y="0" type="line"/>
      <point x="20" y="0" type="line"/>
      <point x="498" y="689" type="line"/>
    </contour>
    <contour>
      <point x="269" y="779" type="curve" smooth="yes"/>
      <point x="269" y="786"/>
      <point x="274" y="790"/>
      <point x="280" y="790" type="curve" smooth="yes"/>
      <point x="286" y="790"/>
      <point x="291" y="786"/>
      <point x="291" y="779" type="curve" smooth="yes"/>
      <point x="291" y="772"/>
      <point x="286" y="768"/>
      <point x="280" y="768" type="curve" smooth="yes"/>
      <point x="274" y="768"/>
      <point x="269" y="772"/>
    </contour>
  </outline>
</glyph>
<glyph name="zdotaccent" format="2">
  <advance width="430"/>
  <unicode hex="017C"/>
  <outline>
    <contour>
      <point x="379" y="450" type="line"/>
      <point x="40" y="450" type="line"/>
      <point x="40" y="460" type="line"/>
      <point x="400" y="460" type="line"/>
      <point x="41" y="10" type="line"/>
      <point x="410" y="10" type="line"/>
      <point x="410" y="0" type="line"/>
      <point x="20" y="0" type="line"/>
    </contour>
    <contour>
      <point x="209" y="571" type="curve" smooth="yes"/>
      <point x="209" y="578"/>
      <point x="214" y="582"/>
      <point x="220" y="582" type="curve" smooth="yes"/>
      <point x="226" y="582"/>
      <point x="231" y="578"/>
      <point x="231" y="571" type="curve" smooth="yes"/>
      <point x="231" y="564"/>
      <point x="226" y="560"/>
      <point x="220" y="560" type="curve" smooth="yes"/>
      <point x="214" y="560"/>
      <point x="209" y="564"/>
    </contour>
  </outline>
</glyph>
<glyph name="uni0237" format="1">
  <advance width="180"/>
  <unicode hex="0237"/>
  <outline>
    <contour>
      <point x="-96" y="-165" type="line"/>
      <point x="-80" y="-185"/>
      <point x="-55" y="-210"/>
      <point x="-18" y="-210" type="curve" smooth="yes"/>
      <point x="62" y="-210"/>
      <point x="80" y="-138"/>
      <point x="80" y="-82" type="curve" smooth="yes"/>
      <point x="80" y="460" type="line"/>
      <point x="90" y="460" type="line"/>
      <point x="90" y="-82" type="line" smooth="yes"/>
      <point x="90" y="-151"/>
      <point x="66" y="-220"/>
      <point x="-18" y="-220" type="curve" smooth="yes"/>
      <point x="-61" y="-220"/>
      <point x="-88" y="-192"/>
      <point x="-103" y="-172" type="curve"/>
    </contour>
  </outline>
</glyph>
<glyph name="ogonek" format="1">
  <advance width="250"/>
  <unicode hex="02DB"/>
  <outline>
    <contour>
      <point x="210" y="-173" type="curve"/>
      <point x="217" y="-180" type="line"/>
      <point x="202" y="-200"/>
      <point x="162" y="-220"/>
      <point x="119" y="-220" type="curve" smooth="yes"/>
      <point x="55" y="-220"/>
      <point x="16" y="-189"/>
      <point x="16" y="-140" type="curve" smooth="yes"/>
      <point x="16" y="-71"/>
      <point x="99" y="-26"/>
      <point x="169" y="10" type="curve"/>
      <point x="176" y="0" type="line"/>
      <point x="108" y="-32"/>
      <point x="26" y="-83"/>
      <point x="26" y="-140" type="curve" smooth="yes"/>
      <point x="26" y="-186"/>
      <point x="69" y="-210"/>
      <point x="119" y="-210" type="curve" smooth="yes"/>
      <point x="159" y="-210"/>
      <point x="195" y="-191"/>
    </contour>
  </outline>
</glyph>
<glyph name="pi" format="1">
  <advance width="470"/>
  <unicode hex="03C0"/>
  <outline>
    <contour>
      <point x="90" y="450" type="line"/>
      <point x="100" y="450" type="line"/>
      <point x="100" y="0" type="line"/>
      <point x="90" y="0" type="line"/>
    </contour>
    <contour>
      <point x="30" y="460" type="line"/>
      <point x="430" y="460" type="line"/>
      <point x="430" y="450" type="line"/>
      <point x="30" y="450" type="line"/>
    </contour>
    <contour>
      <point x="340" y="450" type="line"/>
      <point x="350" y="450" type="line"/>
      <point x="350" y="121" type="line" smooth="yes"/>
      <point x="350" y="25"/>
      <point x="353" y="1"/>
      <point x="403" y="1" type="curve"/>
      <point x="403" y="-9" type="line"/>
      <point x="349" y="-9"/>
      <point x="340" y="12"/>
      <point x="340" y="121" type="curve" smooth="yes"/>
    </contour>
  </outline>
</glyph>
<glyph name="uni040C" format="2">
  <advance width="565"/>
  <unicode hex="040C"/>
  <outline>
    <contour>
      <point x="85" y="700" type="line"/>
      <point x="96" y="700" type="line"/>
      <point x="96" y="0" type="line"/>
      <point x="85" y="0" type="line"/>
    </contour>
    <contour>
      <point x="408" y="700" type="line"/>
      <point x="424" y="700" type="line"/>
      <point x="109" y="372" type="line"/>
      <point x="439" y="0" type="line"/>
      <point x="422" y="0" type="line"/>
      <point x="94" y="372" type="line"/>
    </contour>
    <contour>
      <point x="445.5" y="952" type="line"/>
      <point x="272.5" y="795" type="line"/>
      <point x="267.5" y="800" type="line"/>
      <point x="437.5" y="960" type="line"/>
    </contour>
  </outline>
</glyph>
<glyph name="uni041B" format="2">
  <advance width="613"/>
  <unicode hex="041B"/>
  <outline>
    <contour>
      <point x="533" y="700" type="line"/>
      <point x="533" y="0" type="line"/>
      <point x="523" y="0" type="line"/>
      <point x="523" y="690" type="line"/>
      <point x="113" y="690" type="line"/>
      <point x="113" y="240" type="line" smooth="yes"/>
      <point x="113" y="111"/>
      <point x="74" y="0"/>
      <point x="10" y="0" type="curve"/>
      <point x="10" y="10" type="line"/>
      <point x="70" y="10"/>
      <point x="103" y="134"/>
      <point x="103" y="240" type="curve" smooth="yes"/>
      <point x="103" y="700" type="line"/>
    </contour>
  </outline>
</glyph>
<glyph name="uni041C" format="2">
  <advance width="810"/>
  <unicode hex="041C"/>
  <outline>
    <contour>
      <point x="142" y="675" type="line"/>
      <point x="71" y="0" type="line"/>
      <point x="60" y="0" type="line"/>
      <point x="135" y="715" type="line"/>
      <point x="415" y="131" type="line"/>
      <point x="695" y="715" type="line"/>
      <point x="770" y="0" type="line"/>
      <point x="759" y="0" type="line"/>
      <point x="688" y="675" type="line"/>
      <point x="415" y="105" type="line"/>
    </contour>
  </outline>
</glyph>
<glyph name="uni0422" format="2">
  <advance width="465"/>
  <unicode hex="0422"/>
  <outline>
    <contour>
      <point x="20" y="689" type="line"/>
      <point x="20" y="700" type="line"/>
      <point x="411" y="700" type="line"/>
      <point x="411" y="689" type="line"/>
      <point x="221" y="689" type="line"/>
      <point x="221" y="0" type="line"/>
      <point x="210" y="0" type="line"/>
      <point x="210" y="689" type="line"/>
    </contour>
  </outline>
</glyph>
<glyph name="uni0443" format="2">
  <advance width="440"/>
  <unicode hex="0443"/>
  <outline>
    <contour>
      <point x="415" y="460" type="line"/>
      <point x="115" y="-220" type="line"/>
      <point x="104" y="-220" type="line"/>
      <point x="210" y="20" type="line"/>
      <point x="10" y="460" type="line"/>
      <point x="22" y="460" type="line"/>
      <point x="221" y="20" type="line"/>
      <point x="210" y="20" type="line"/>
      <point x="404" y="460" type="line"/>
    </contour>
  </outline>
</glyph>
<glyph name="uni0445" format="2">
  <advance width="420"/>
  <unicode hex="0445"/>
  <outline>
    <contour>
      <point x="345" y="460" type="line"/>
      <point x="359" y="460" type="line"/>
      <point x="197" y="237" type="line"/>
      <point x="370" y="0" type="line"/>
      <point x="355" y="0" type="line"/>
      <point x="190" y="229" type="line"/>
      <point x="25" y="0" type="line"/>
      <point x="10" y="0" type="line"/>
      <point x="183" y="237" type="line"/>
      <point x="20" y="460" type="line"/>
      <point x="35" y="460" type="line"/>
      <point x="190" y="245" type="line"/>
    </contour>
  </outline>
</glyph>
<glyph name="uni044D" format="2">
  <advance width="488"/>
  <unicode hex="044D"/>
  <outline>
    <contour>
      <point x="137" y="235" type="line"/>
      <point x="441" y="235" type="line"/>
      <point x="441" y="225" type="line"/>
      <point x="137" y="225" type="line"/>
    </contour>
    <contour>
      <point x="438" y="230" type="curve" smooth="yes"/>
      <point x="438" y="364"/>
      <point x="340" y="460"/>
      <point x="215" y="460" type="curve" smooth="yes"/>
      <point x="141" y="460"/>
      <point x="81" y="423"/>
      <point x="60" y="399" type="curve"/>
      <point x="60" y="412" type="line"/>
      <point x="82" y="436"/>
      <point x="142" y="470"/>
      <point x="215" y="470" type="curve" smooth="yes"/>
      <point x="347" y="470"/>
      <point x="448" y="369"/>
      <point x="448" y="230" type="curve" smooth="yes"/>
      <point x="448" y="91"/>
      <point x="347" y="-10"/>
      <point x="215" y="-10" type="curve" smooth="yes"/>
      <point x="142" y="-10"/>
      <point x="82" y="23"/>
      <point x="60" y="48" type="curve"/>
      <point x="60" y="61" type="line"/>
      <point x="81" y="37"/>
      <point x="141" y="0"/>
      <point x="215" y="0" type="curve" smooth="yes"/>
      <point x="340" y="0"/>
      <point x="438" y="96"/>
    </contour>
  </outline>
</glyph>
<glyph name="uni045C" format="2">
  <advance width="440"/>
  <unicode hex="045C"/>
  <outline>
    <contour>
      <point x="80" y="460" type="line"/>
      <point x="90" y="460" type="line"/>
      <point x="90" y="0" type="line"/>
      <point x="80" y="0" type="line"/>
    </contour>
    <contour>
      <point x="328" y="460" type="line"/>
      <point x="344" y="460" type="line"/>
      <point x="102" y="270" type="line"/>
      <point x="362" y="0" type="line"/>
      <point x="348" y="0" type="line"/>
      <point x="88" y="270" type="line"/>
    </contour>
    <contour>
      <point x="378" y="712" type="line"/>
      <point x="205" y="555" type="line"/>
      <point x="200" y="560" type="line"/>
      <point x="370" y="720" type="line"/>
    </contour>
  </outline>
</glyph>
<glyph name="quotedblleft" format="1">
  <advance width="385"/>
  <unicode hex="201C"/>
  <outline>
    <contour>
      <point x="92" y="470" type="line"/>
      <point x="80" y="470" type="line"/>
      <point x="175" y="700" type="line"/>
      <point x="185" y="700" type="line"/>
    </contour>
    <contour>
      <point x="232" y="470" type="line"/>
      <point x="220" y="470" type="line"/>
      <point x="315" y="700" type="line"/>
      <point x="325" y="700" type="line"/>
    </contour>
  </outline>
</glyph>
<glyph name="guilsinglleft" format="1">
  <advance width="325"/>
  <unicode hex="2039"/>
  <outline>
    <contour>
      <point x="50" y="255" type="line"/>
      <point x="255" y="27" type="line"/>
      <point x="248" y="20" type="line"/>
      <point x="40" y="255" type="line"/>
      <point x="248" y="490" type="line"/>
      <point x="255" y="483" type="line"/>
    </contour>
  </outline>
</glyph>
<glyph name="uni2077" format="2">
  <advance width="352"/>
  <unicode hex="2077"/>
  <outline>
    <contour>
      <point x="35" y="694" type="line"/>
      <point x="35" y="700" type="line"/>
      <point x="317" y="700" type="line"/>
      <point x="95" y="280" type="line"/>
      <point x="88" y="280" type="line"/>
      <point x="307" y="694" type="line"/>
    </contour>
  </outline>
</glyph>
<glyph name="uni2082" format="2">
  <advance width="332"/>
  <unicode hex="2082"/>
  <outline>
    <contour>
      <point x="30" y="2" type="line"/>
      <point x="222" y="203" type="line" smooth="yes"/>
      <point x="251" y="234"/>
      <point x="279" y="264"/>
      <point x="279" y="314" type="curve" smooth="yes"/>
      <point x="279" y="361"/>
      <point x="250" y="423"/>
      <point x="172" y="423" type="curve" smooth="yes"/>
      <point x="100" y="423"/>
      <point x="54" y="363"/>
      <point x="54" y="278" type="curve"/>
      <point x="48" y="278" type="line"/>
      <point x="48" y="367"/>
      <point x="97" y="429"/>
      <point x="172" y="429" type="curve" smooth="yes"/>
      <point x="252" y="429"/>
      <point x="285" y="364"/>
      <point x="285" y="314" type="curve" smooth="yes"/>
      <point x="285" y="265"/>
      <point x="257" y="230"/>
      <point x="227" y="199" type="curve" smooth="yes"/>
      <point x="45" y="8" type="line"/>
      <point x="302" y="8" type="line"/>
      <point x="302" y="2" type="line"/>
    </contour>
  </outline>
</glyph>
<glyph name="uni2085" format="2">
  <advance width="341"/>
  <unicode hex="2085"/>
  <outline>
    <contour>
      <point x="295" y="136" type="curve" smooth="yes"/>
      <point x="295" y="41"/>
      <point x="235" y="-8"/>
      <point x="160" y="-8" type="curve" smooth="yes"/>
      <point x="95" y="-8"/>
      <point x="57" y="26"/>
      <point x="35" y="80" type="curve"/>
      <point x="40" y="83" type="line"/>
      <point x="62" y="30"/>
      <point x="97" y="-2"/>
      <point x="160" y="-2" type="curve" smooth="yes"/>
      <point x="232" y="-2"/>
      <point x="289" y="45"/>
      <point x="289" y="136" type="curve" smooth="yes"/>
      <point x="289" y="209"/>
      <point x="239" y="260"/>
      <point x="176" y="260" type="curve" smooth="yes"/>
      <point x="124" y="260"/>
      <point x="84" y="236"/>
      <point x="53" y="194" type="curve"/>
      <point x="63" y="213" type="line"/>
      <point x="81" y="240"/>
      <point x="123" y="266"/>
      <point x="176" y="266" type="curve" smooth="yes"/>
      <point x="242" y="266"/>
      <point x="295" y="213"/>
    </contour>
    <contour>
      <point x="112" y="412" type="line"/>
      <point x="63" y="213" type="line"/>
      <point x="53" y="194" type="line"/>
      <point x="108" y="418" type="line"/>
      <point x="306" y="418" type="line"/>
      <point x="306" y="412" type="line"/>
    </contour>
  </outline>
</glyph>
<glyph name="uni2086" format="2">
  <advance width="332"/>
  <unicode hex="2086"/>
  <outline>
    <contour>
      <point x="46" y="130" type="curve" smooth="yes"/>
      <point x="46" y="54"/>
      <point x="96" y="-2"/>
      <point x="171" y="-2" type="curve" smooth="yes"/>
      <point x="246" y="-2"/>
      <point x="296" y="54"/>
      <point x="296" y="130" type="curve" smooth="yes"/>
      <point x="296" y="200"/>
      <point x="241" y="254"/>
      <point x="178" y="254" type="curve" smooth="yes"/>
      <point x="94" y="254"/>
      <point x="46" y="194"/>
    </contour>
    <contour>
      <point x="208" y="418" type="line"/>
      <point x="216" y="418" type="line"/>
      <point x="70" y="211" type="line"/>
      <point x="70" y="211" type="line"/>
      <point x="95" y="242"/>
      <point x="133" y="260"/>
      <point x="178" y="260" type="curve" smooth="yes"/>
      <point x="246" y="260"/>
      <point x="302" y="201"/>
      <point x="302" y="130" type="curve" smooth="yes"/>
      <point x="302" y="50"/>
      <point x="252" y="-8"/>
      <point x="171" y="-8" type="curve" smooth="yes"/>
      <point x="90" y="-8"/>
      <point x="40" y="50"/>
      <point x="40" y="130" type="curve" smooth="yes"/>
      <point x="40" y="164"/>
      <point x="58" y="203"/>
      <point x="74" y="225" type="curve" smooth="yes"/>
    </contour>
  </outline>
</glyph>
<glyph name="uni2150" format="1">
  <advance width="842"/>
  <unicode hex="2150"/>
  <outline>
    <contour>
      <point x="621" y="700" type="line"/>
      <point x="633" y="700" type="line"/>
      <point x="60" y="0" type="line"/>
      <point x="48" y="0" type="line"/>
    </contour>
    <contour>
      <point x="21" y="666" type="line"/>
      <point x="21" y="673" type="line"/>
      <point x="129" y="697" type="line"/>
      <point x="129" y="274" type="line"/>
      <point x="123" y="274" type="line"/>
      <point x="123" y="689" type="line"/>
    </contour>
    <contour>
      <point x="523" y="414" type="line"/>
      <point x="523" y="420" type="line"/>
      <point x="805" y="420" type="line"/>
      <point x="583" y="0" type="line"/>
      <point x="576" y="0" type="line"/>
      <point x="795" y="414" type="line"/>
    </contour>
  </outline>
</glyph>
<glyph name="twothirds" format="2">
  <advance width="882"/>
  <unicode hex="2154"/>
  <outline>
    <contour>
      <point x="748" y="700" type="line"/>
      <point x="760" y="700" type="line"/>
      <point x="187" y="0" type="line"/>
      <point x="175" y="0" type="line"/>
    </contour>
    <contour>
      <point x="33" y="282" type="line"/>
      <point x="225" y="483" type="line" smooth="yes"/>
      <point x="254" y="514"/>
      <point x="282" y="544"/>
      <point x="282" y="594" type="curve" smooth="yes"/>
      <point x="282" y="641"/>
      <point x="253" y="703"/>
      <point x="175" y="703" type="curve" smooth="yes"/>
      <point x="103" y="703"/>
      <point x="57" y="643"/>
      <point x="57" y="558" type="curve"/>
      <point x="51" y="558" type="line"/>
      <point x="51" y="647"/>
      <point x="100" y="709"/>
      <point x="175" y="709" type="curve" smooth="yes"/>
      <point x="255" y="709"/>
      <point x="288" y="644"/>
      <point x="288" y="594" type="curve" smooth="yes"/>
      <point x="288" y="545"/>
      <point x="260" y="510"/>
      <point x="230" y="479" type="curve" smooth="yes"/>
      <point x="48" y="288" type="line"/>
      <point x="305" y="288" type="line"/>
      <point x="305" y="282" type="line"/>
    </contour>
    <contour>
      <point x="705" y="217" type="curve"/>
      <point x="705" y="222" type="line"/>
      <point x="759" y="222"/>
      <point x="830" y="258"/>
      <point x="830" y="320" type="curve" smooth="yes"/>
      <point x="830" y="370"/>
      <point x="793" y="420"/>
      <point x="726" y="420" type="curve" smooth="yes"/>
      <point x="661" y="420"/>
      <point x="619" y="377"/>
      <point x="619" y="316" type="curve"/>
      <point x="613" y="316" type="line"/>
      <point x="613" y="381"/>
      <point x="657" y="426"/>
      <point x="726" y="426" type="curve" smooth="yes"/>
      <point x="798" y="426"/>
      <point x="836" y="373"/>
      <point x="836" y="320" type="curve" smooth="yes"/>
      <point x="836" y="255"/>
      <point x="768" y="217"/>
    </contour>
    <contour>
      <point x="723" y="-6" type="curve" smooth="yes"/>
      <point x="642" y="-6"/>
      <point x="595" y="46"/>
      <point x="595" y="111" type="curve"/>
      <point x="601" y="111" type="line"/>
      <point x="601" y="47"/>
      <point x="645" y="0"/>
      <point x="723" y="0" type="curve" smooth="yes"/>
      <point x="795" y="0"/>
      <point x="842" y="44"/>
      <point x="842" y="105" type="curve" smooth="yes"/>
      <point x="842" y="180"/>
      <point x="759" y="216"/>
      <point x="705" y="216" type="curve"/>
      <point x="705" y="221" type="line"/>
      <point x="768" y="221"/>
      <point x="848" y="182"/>
      <point x="848" y="105" type="curve" smooth="yes"/>
      <point x="848" y="40"/>
      <point x="798" y="-6"/>
    </contour>
  </outline>
</glyph>
<glyph name="uni2159" format="1">
  <advance width="734"/>
  <unicode hex="2159"/>
  <outline>
    <contour>
      <point x="621" y="700" type="line"/>
      <point x="633" y="700" type="line"/>
      <point x="60" y="0" type="line"/>
      <point x="48" y="0" type="line"/>
    </contour>
    <contour>
      <point x="21" y="666" type="line"/>
      <point x="21" y="673" type="line"/>
      <point x="129" y="697" type="line"/>
      <point x="129" y="274" type="line"/>
      <point x="123" y="274" type="line"/>
      <point x="123" y="689" type="line"/>
    </contour>
    <contour>
      <point x="434" y="130" type="curve" smooth="yes"/>
      <point x="434" y="54"/>
      <point x="484" y="-2"/>
      <point x="559" y="-2" type="curve" smooth="yes"/>
      <point x="634" y="-2"/>
      <point x="684" y="54"/>
      <point x="684" y="130" type="curve" smooth="yes"/>
      <point x="684" y="200"/>
      <point x="629" y="254"/>
      <point x="566" y="254" type="curve" smooth="yes"/>
      <point x="482" y="254"/>
      <point x="434" y="194"/>
    </contour>
    <contour>
      <point x="596" y="418" type="line"/>
      <point x="604" y="418" type="line"/>
      <point x="458" y="211" type="line"/>
      <point x="458" y="211" type="line"/>
      <point x="483" y="242"/>
      <point x="521" y="260"/>
      <point x="566" y="260" type="curve" smooth="yes"/>
      <point x="634" y="260"/>
      <point x="690" y="201"/>
      <point x="690" y="130" type="curve" smooth="yes"/>
      <point x="690" y="50"/>
      <point x="640" y="-8"/>
      <point x="559" y="-8" type="curve" smooth="yes"/>
      <point x="478" y="-8"/>
      <point x="428" y="50"/>
      <point x="428" y="130" type="curve" smooth="yes"/>
      <point x="428" y="164"/>
      <point x="446" y="203"/>
      <point x="462" y="225" type="curve" smooth="yes"/>
    </contour>
  </outline>
</glyph>
<glyph name="uni215A" format="2">
  <advance width="856"/>
  <unicode hex="215A"/>
  <outline>
    <contour>
      <point x="743" y="700" type="line"/>
      <point x="755" y="700" type="line"/>
      <point x="182" y="0" type="line"/>
      <point x="170" y="0" type="line"/>
    </contour>
    <contour>
      <point x="295" y="416" type="curve" smooth="yes"/>
      <point x="295" y="321"/>
      <point x="235" y="272"/>
      <point x="160" y="272" type="curve" smooth="yes"/>
      <point x="95" y="272"/>
      <point x="57" y="306"/>
      <point x="35" y="360" type="curve"/>
      <point x="40" y="363" type="line"/>
      <point x="62" y="310"/>
      <point x="97" y="278"/>
      <point x="160" y="278" type="curve" smooth="yes"/>
      <point x="232" y="278"/>
      <point x="289" y="325"/>
      <point x="289" y="416" type="curve" smooth="yes"/>
      <point x="289" y="489"/>
      <point x="239" y="540"/>
      <point x="176" y="540" type="curve" smooth="yes"/>
      <point x="124" y="540"/>
      <point x="84" y="516"/>
      <point x="53" y="474" type="curve"/>
      <point x="63" y="493" type="line"/>
      <point x="81" y="520"/>
      <point x="123" y="546"/>
      <point x="176" y="546" type="curve" smooth="yes"/>
      <point x="242" y="546"/>
      <point x="295" y="493"/>
    </contour>
    <contour>
      <point x="112" y="692" type="line"/>
      <point x="63" y="493" type="line"/>
      <point x="53" y="474" type="line"/>
      <point x="108" y="698" type="line"/>
      <point x="306" y="698" type="line"/>
      <point x="306" y="692" type="line"/>
    </contour>
    <contour>
      <point x="556" y="130" type="curve" smooth="yes"/>
      <point x="556" y="54"/>
      <point x="606" y="-2"/>
      <point x="681" y="-2" type="curve" smooth="yes"/>
      <point x="756" y="-2"/>
      <point x="806" y="54"/>
      <point x="806" y="130" type="curve" smooth="yes"/>
      <point x="806" y="200"/>
      <point x="751" y="254"/>
      <point x="688" y="254" type="curve" smooth="yes"/>
      <point x="604" y="254"/>
      <point x="556" y="194"/>
    </contour>
    <contour>
      <point x="718" y="418" type="line"/>
      <point x="726" y="418" type="line"/>
      <point x="580" y="211" type="line"/>
      <point x="580" y="211" type="line"/>
      <point x="605" y="242"/>
      <point x="643" y="260"/>
      <point x="688" y="260" type="curve" smooth="yes"/>
      <point x="756" y="260"/>
      <point x="812" y="201"/>
      <point x="812" y="130" type="curve" smooth="yes"/>
      <point x="812" y="50"/>
      <point x="762" y="-8"/>
      <point x="681" y="-8" type="curve" smooth="yes"/>
      <point x="600" y="-8"/>
      <point x="550" y="50"/>
      <point x="550" y="130" type="curve" smooth="yes"/>
      <point x="550" y="164"/>
      <point x="568" y="203"/>
      <point x="584" y="225" type="curve" smooth="yes"/>
    </contour>
  </outline>
</glyph>
<glyph name="seveneighths" format="2">
  <advance width="772"/>
  <unicode hex="215E"/>
  <outline>
    <contour>
      <point x="633" y="700" type="line"/>
      <point x="645" y="700" type="line"/>
      <point x="72" y="0" type="line"/>
      <point x="60" y="0" type="line"/>
    </contour>
    <contour>
      <point x="35" y="694" type="line"/>
      <point x="35" y="700" type="line"/>
      <point x="317" y="700" type="line"/>
      <point x="95" y="280" type="line"/>
      <point x="88" y="280" type="line"/>
      <point x="307" y="694" type="line"/>
    </contour>
    <contour>
      <point x="497" y="325" type="curve" smooth="yes"/>
      <point x="497" y="378"/>
      <point x="541" y="426"/>
      <point x="601" y="426" type="curve" smooth="yes"/>
      <point x="661" y="426"/>
      <point x="705" y="378"/>
      <point x="705" y="325" type="curve" smooth="yes"/>
      <point x="705" y="266"/>
      <point x="652" y="221"/>
      <point x="601" y="221" type="curve" smooth="yes"/>
      <point x="550" y="221"/>
      <point x="497" y="266"/>
    </contour>
    <contour>
      <point x="503" y="325" type="curve" smooth="yes"/>
      <point x="503" y="267"/>
      <point x="559" y="225"/>
      <point x="601" y="225" type="curve" smooth="yes"/>
      <point x="643" y="225"/>
      <point x="699" y="267"/>
      <point x="699" y="325" type="curve" smooth="yes"/>
      <point x="699" y="377"/>
      <point x="658" y="420"/>
      <point x="601" y="420" type="curve" smooth="yes"/>
      <point x="544" y="420"/>
      <point x="503" y="377"/>
    </contour>
    <contour>
      <point x="485" y="111" type="curve" smooth="yes"/>
      <point x="485" y="176"/>
      <point x="541" y="223"/>
      <point x="601" y="223" type="curve" smooth="yes"/>
      <point x="661" y="223"/>
      <point x="717" y="176"/>
      <point x="717" y="111" type="curve" smooth="yes"/>
      <point x="717" y="46"/>
      <point x="676" y="-6"/>
      <point x="601" y="-6" type="curve" smooth="yes"/>
      <point x="526" y="-6"/>
      <point x="485" y="46"/>
    </contour>
    <contour>
      <point x="491" y="111" type="curve" smooth="yes"/>
      <point x="491" y="47"/>
      <point x="532" y="0"/>
      <point x="601" y="0" type="curve" smooth="yes"/>
      <point x="670" y="0"/>
      <point x="711" y="47"/>
      <point x="711" y="111" type="curve" smooth="yes"/>
      <point x="711" y="175"/>
      <point x="655" y="219"/>
      <point x="601" y="219" type="curve" smooth="yes"/>
      <point x="547" y="219"/>
      <point x="491" y="175"/>
    </contour>
  </outline>
</glyph>
<glyph name="uni2219" format="2">
  <advance width="260"/>
  <unicode hex="2219"/>
  <outline>
    <contour>
      <point x="119" y="449" type="curve" smooth="yes"/>
      <point x="119" y="456"/>
      <point x="124" y="460"/>
      <point x="130" y="460" type="curve" smooth="yes"/>
      <point x="136" y="460"/>
      <point x="141" y="456"/>
      <point x="141" y="449" type="curve" smooth="yes"/>
      <point x="141" y="442"/>
      <point x="136" y="438"/>
      <point x="130" y="438" type="curve" smooth="yes"/>
      <point x="124" y="438"/>
      <point x="119" y="442"/>
    </contour>
  </outline>
</glyph>
<glyph name="uniFF12" format="1">
  <advance width="550"/>
  <unicode hex="FF12"/>
  <outline>
    <contour>
      <point x="43" y="0" type="line"/>
      <point x="363" y="334" type="line" smooth="yes"/>
      <point x="412" y="385"/>
      <point x="458" y="435"/>
      <point x="458" y="519" type="curve" smooth="yes"/>
      <point x="458" y="598"/>
      <point x="410" y="701"/>
      <point x="280" y="701" type="curve" smooth="yes"/>
      <point x="160" y="701"/>
      <point x="83" y="601"/>
      <point x="83" y="460" type="curve"/>
      <point x="73" y="460" type="line"/>
      <point x="73" y="609"/>
      <point x="155" y="711"/>
      <point x="280" y="711" type="curve" smooth="yes"/>
      <point x="414" y="711"/>
      <point x="469" y="603"/>
      <point x="469" y="519" type="curve" smooth="yes"/>
      <point x="469" y="437"/>
      <point x="422" y="380"/>
      <point x="372" y="328" type="curve" smooth="yes"/>
      <point x="68" y="10" type="line"/>
      <point x="497" y="10" type="line"/>
      <point x="497" y="0" type="line"/>
    </contour>
  </outline>
</glyph>
<glyph name="uniFF14" format="2">
  <advance width="550"/>
  <unicode hex="FF14"/>
  <outline>
    <contour>
      <point x="24" y="140" type="line"/>
      <point x="34" y="150" type="line"/>
      <point x="400" y="150" type="line" smooth="yes"/>
      <point x="404" y="150" type="line" smooth="yes"/>
      <point x="516" y="150" type="line"/>
      <point x="516" y="140" type="line"/>
    </contour>
    <contour>
      <point x="36" y="140" type="line"/>
      <point x="24" y="140" type="line"/>
      <point x="406" y="700" type="line"/>
      <point x="408" y="700" type="line"/>
      <point x="408" y="0" type="line"/>
      <point x="397" y="0" type="line"/>
      <point x="397" y="142" type="line" smooth="yes"/>
      <point x="397" y="147" type="line" smooth="yes"/>
      <point x="397" y="666" type="line"/>
    </contour>
  </outline>
</glyph>
<glyph name="uniFF19" format="1">
  <advance width="550"/>
  <unicode hex="FF19"/>
  <outline>
    <contour>
      <point x="483" y="480" type="curve" smooth="yes"/>
      <point x="483" y="606"/>
      <point x="400" y="700"/>
      <point x="275" y="700" type="curve" smooth="yes"/>
      <point x="150" y="700"/>
      <point x="67" y="606"/>
      <point x="67" y="480" type="curve" smooth="yes"/>
      <point x="67" y="364"/>
      <point x="159" y="273"/>
      <point x="264" y="273" type="curve" smooth="yes"/>
      <point x="404" y="273"/>
      <point x="483" y="374"/>
    </contour>
    <contour>
      <point x="213" y="0" type="line"/>
      <point x="201" y="0" type="line"/>
      <point x="443" y="345" type="line"/>
      <point x="443" y="345" type="line"/>
      <point x="401" y="293"/>
      <point x="339" y="263"/>
      <point x="264" y="263" type="curve" smooth="yes"/>
      <point x="150" y="263"/>
      <point x="57" y="361"/>
      <point x="57" y="480" type="curve" smooth="yes"/>
      <point x="57" y="614"/>
      <point x="140" y="710"/>
      <point x="275" y="710" type="curve" smooth="yes"/>
      <point x="410" y="710"/>
      <point x="493" y="614"/>
      <point x="493" y="480" type="curve" smooth="yes"/>
      <point x="493" y="423"/>
      <point x="464" y="358"/>
      <point x="437" y="321" type="curve" smooth="yes"/>
    </contour>
  </outline>
</glyph>
<glyph name="abreve.alt" format="2">
  <advance width="541"/>
  <outline>
    <contour>
      <point x="451" y="460" type="line"/>
      <point x="461" y="460" type="line"/>
      <point x="461" y="0" type="line"/>
      <point x="451" y="0" type="line"/>
    </contour>
    <contour>
      <point x="45" y="230" type="curve" smooth="yes"/>
      <point x="45" y="377"/>
      <point x="138" y="470"/>
      <point x="258" y="470" type="curve" smooth="yes"/>
      <point x="381" y="470"/>
      <point x="456" y="349"/>
      <point x="456" y="230" type="curve" smooth="yes"/>
      <point x="456" y="111"/>
      <point x="381" y="-10"/>
      <point x="258" y="-10" type="curve" smooth="yes"/>
      <point x="138" y="-10"/>
      <point x="45" y="83"/>
    </contour>
    <contour>
      <point x="55" y="230" type="curve" smooth="yes"/>
      <point x="55" y="89"/>
      <point x="145" y="0"/>
      <point x="261" y="0" type="curve" smooth="yes"/>
      <point x="370" y="0"/>
      <point x="451" y="114"/>
      <point x="451" y="230" type="curve" smooth="yes"/>
      <point x="451" y="346"/>
      <point x="370" y="460"/>
      <point x="261" y="460" type="curve" smooth="yes"/>
      <point x="145" y="460"/>
      <point x="55" y="371"/>
    </contour>
    <contour>
      <point x="100" y="690" type="curve"/>
      <point x="110" y="690" type="line"/>
      <point x="110" y="624"/>
      <point x="166" y="560"/>
      <point x="258" y="560" type="curve" smooth="yes"/>
      <point x="350" y="560"/>
      <point x="406" y="624"/>
      <point x="406" y="690" type="curve"/>
      <point x="416" y="690" type="line"/>
      <point x="416" y="621"/>
      <point x="363" y="550"/>
      <point x="258" y="550" type="curve" smooth="yes"/>
      <point x="153" y="550"/>
      <point x="100" y="621"/>
    </contour>
  </outline>
</glyph>
<glyph name="aogonek.alt" format="2">
  <advance width="541"/>
  <outline>
    <contour>
      <point x="451" y="460" type="line"/>
      <point x="461" y="460" type="line"/>
      <point x="461" y="0" type="line"/>
      <point x="451" y="0" type="line"/>
    </contour>
    <contour>
      <point x="45" y="230" type="curve" smooth="yes"/>
      <point x="45" y="377"/>
      <point x="138" y="470"/>
      <point x="258" y="470" type="curve" smooth="yes"/>
      <point x="381" y="470"/>
      <point x="456" y="349"/>
      <point x="456" y="230" type="curve" smooth="yes"/>
      <point x="456" y="111"/>
      <point x="381" y="-10"/>
      <point x="258" y="-10" type="curve" smooth="yes"/>
      <point x="138" y="-10"/>
      <point x="45" y="83"/>
    </contour>
    <contour>
      <point x="55" y="230" type="curve" smooth="yes"/>
      <point x="55" y="89"/>
      <point x="145" y="0"/>
      <point x="261" y="0" type="curve" smooth="yes"/>
      <point x="370" y="0"/>
      <point x="451" y="114"/>
      <point x="451" y="230" type="curve" smooth="yes"/>
      <point x="451" y="346"/>
      <point x="370" y="460"/>
      <point x="261" y="460" type="curve" smooth="yes"/>
      <point x="145" y="460"/>
      <point x="55" y="371"/>
    </contour>
    <contour>
      <point x="495" y="-173" type="curve"/>
      <point x="502" y="-180" type="line"/>
      <point x="487" y="-200"/>
      <point x="447" y="-220"/>
      <point x="404" y="-220" type="curve" smooth="yes"/>
      <point x="340" y="-220"/>
      <point x="301" y="-189"/>
      <point x="301" y="-140" type="curve" smooth="yes"/>
      <point x="301" y="-71"/>
      <point x="384" y="-26"/>
      <point x="454" y="10" type="curve"/>
      <point x="461" y="0" type="line"/>
      <point x="393" y="-32"/>
      <point x="311" y="-83"/>
      <point x="311" y="-140" type="curve" smooth="yes"/>
      <point x="311" y="-186"/>
      <point x="354" y="-210"/>
      <point x="404" y="-210" type="curve" smooth="yes"/>
      <point x="444" y="-210"/>
      <point x="480" y="-191"/>
    </contour>
  </outline>
</glyph>
